<svg id="my-svg" width="100%" xmlns="http://www.w3.org/2000/svg" xmlns:xlink="http://www.w3.org/1999/xlink" class="flowchart" style="max-width: 3098.34px; background-color: white;" viewBox="0 0 3098.33984375 1146.2100830078125" role="graphics-document document" aria-roledescription="flowchart-v2"><style>#my-svg{font-family:"trebuchet ms",verdana,arial,sans-serif;font-size:16px;fill:#333;}@keyframes edge-animation-frame{from{stroke-dashoffset:0;}}@keyframes dash{to{stroke-dashoffset:0;}}#my-svg .edge-animation-slow{stroke-dasharray:9,5!important;stroke-dashoffset:900;animation:dash 50s linear infinite;stroke-linecap:round;}#my-svg .edge-animation-fast{stroke-dasharray:9,5!important;stroke-dashoffset:900;animation:dash 20s linear infinite;stroke-linecap:round;}#my-svg .error-icon{fill:#552222;}#my-svg .error-text{fill:#552222;stroke:#552222;}#my-svg .edge-thickness-normal{stroke-width:1px;}#my-svg .edge-thickness-thick{stroke-width:3.5px;}#my-svg .edge-pattern-solid{stroke-dasharray:0;}#my-svg .edge-thickness-invisible{stroke-width:0;fill:none;}#my-svg .edge-pattern-dashed{stroke-dasharray:3;}#my-svg .edge-pattern-dotted{stroke-dasharray:2;}#my-svg .marker{fill:#333333;stroke:#333333;}#my-svg .marker.cross{stroke:#333333;}#my-svg svg{font-family:"trebuchet ms",verdana,arial,sans-serif;font-size:16px;}#my-svg p{margin:0;}#my-svg .label{font-family:"trebuchet ms",verdana,arial,sans-serif;color:#333;}#my-svg .cluster-label text{fill:#333;}#my-svg .cluster-label span{color:#333;}#my-svg .cluster-label span p{background-color:transparent;}#my-svg .label text,#my-svg span{fill:#333;color:#333;}#my-svg .node rect,#my-svg .node circle,#my-svg .node ellipse,#my-svg .node polygon,#my-svg .node path{fill:#ECECFF;stroke:#9370DB;stroke-width:1px;}#my-svg .rough-node .label text,#my-svg .node .label text,#my-svg .image-shape .label,#my-svg .icon-shape .label{text-anchor:middle;}#my-svg .node .katex path{fill:#000;stroke:#000;stroke-width:1px;}#my-svg .rough-node .label,#my-svg .node .label,#my-svg .image-shape .label,#my-svg .icon-shape .label{text-align:center;}#my-svg .node.clickable{cursor:pointer;}#my-svg .root .anchor path{fill:#333333!important;stroke-width:0;stroke:#333333;}#my-svg .arrowheadPath{fill:#333333;}#my-svg .edgePath .path{stroke:#333333;stroke-width:2.0px;}#my-svg .flowchart-link{stroke:#333333;fill:none;}#my-svg .edgeLabel{background-color:rgba(232,232,232, 0.8);text-align:center;}#my-svg .edgeLabel p{background-color:rgba(232,232,232, 0.8);}#my-svg .edgeLabel rect{opacity:0.5;background-color:rgba(232,232,232, 0.8);fill:rgba(232,232,232, 0.8);}#my-svg .labelBkg{background-color:rgba(232, 232, 232, 0.5);}#my-svg .cluster rect{fill:#ffffde;stroke:#aaaa33;stroke-width:1px;}#my-svg .cluster text{fill:#333;}#my-svg .cluster span{color:#333;}#my-svg div.mermaidTooltip{position:absolute;text-align:center;max-width:200px;padding:2px;font-family:"trebuchet ms",verdana,arial,sans-serif;font-size:12px;background:hsl(80, 100%, 96.2745098039%);border:1px solid #aaaa33;border-radius:2px;pointer-events:none;z-index:100;}#my-svg .flowchartTitleText{text-anchor:middle;font-size:18px;fill:#333;}#my-svg rect.text{fill:none;stroke-width:0;}#my-svg .icon-shape,#my-svg .image-shape{background-color:rgba(232,232,232, 0.8);text-align:center;}#my-svg .icon-shape p,#my-svg .image-shape p{background-color:rgba(232,232,232, 0.8);padding:2px;}#my-svg .icon-shape .label rect,#my-svg .image-shape .label rect{opacity:0.5;background-color:rgba(232,232,232, 0.8);fill:rgba(232,232,232, 0.8);}#my-svg .label-icon{display:inline-block;height:1em;overflow:visible;vertical-align:-0.125em;}#my-svg .node .label-icon path{fill:currentColor;stroke:revert;stroke-width:revert;}#my-svg :root{--mermaid-font-family:"trebuchet ms",verdana,arial,sans-serif;}</style><g><marker id="my-svg_flowchart-v2-pointEnd" class="marker flowchart-v2" viewBox="0 0 10 10" refX="5" refY="5" markerUnits="userSpaceOnUse" markerWidth="8" markerHeight="8" orient="auto"><path d="M 0 0 L 10 5 L 0 10 z" class="arrowMarkerPath" style="stroke-width: 1; stroke-dasharray: 1, 0;"/></marker><marker id="my-svg_flowchart-v2-pointStart" class="marker flowchart-v2" viewBox="0 0 10 10" refX="4.5" refY="5" markerUnits="userSpaceOnUse" markerWidth="8" markerHeight="8" orient="auto"><path d="M 0 5 L 10 10 L 10 0 z" class="arrowMarkerPath" style="stroke-width: 1; stroke-dasharray: 1, 0;"/></marker><marker id="my-svg_flowchart-v2-circleEnd" class="marker flowchart-v2" viewBox="0 0 10 10" refX="11" refY="5" markerUnits="userSpaceOnUse" markerWidth="11" markerHeight="11" orient="auto"><circle cx="5" cy="5" r="5" class="arrowMarkerPath" style="stroke-width: 1; stroke-dasharray: 1, 0;"/></marker><marker id="my-svg_flowchart-v2-circleStart" class="marker flowchart-v2" viewBox="0 0 10 10" refX="-1" refY="5" markerUnits="userSpaceOnUse" markerWidth="11" markerHeight="11" orient="auto"><circle cx="5" cy="5" r="5" class="arrowMarkerPath" style="stroke-width: 1; stroke-dasharray: 1, 0;"/></marker><marker id="my-svg_flowchart-v2-crossEnd" class="marker cross flowchart-v2" viewBox="0 0 11 11" refX="12" refY="5.2" markerUnits="userSpaceOnUse" markerWidth="11" markerHeight="11" orient="auto"><path d="M 1,1 l 9,9 M 10,1 l -9,9" class="arrowMarkerPath" style="stroke-width: 2; stroke-dasharray: 1, 0;"/></marker><marker id="my-svg_flowchart-v2-crossStart" class="marker cross flowchart-v2" viewBox="0 0 11 11" refX="-1" refY="5.2" markerUnits="userSpaceOnUse" markerWidth="11" markerHeight="11" orient="auto"><path d="M 1,1 l 9,9 M 10,1 l -9,9" class="arrowMarkerPath" style="stroke-width: 2; stroke-dasharray: 1, 0;"/></marker><g class="root"><g class="clusters"><g class="cluster" id="P4" data-look="classic"><rect style="" x="207.21875" y="604.625" width="451.31640625" height="533.585090637207"/><g class="cluster-label" transform="translate(306.353515625, 604.625)"><foreignObject width="253.046875" height="24"><div xmlns="http://www.w3.org/1999/xhtml" style="display: table-cell; white-space: nowrap; line-height: 1.5;"><span class="nodeLabel"><p>core/manim_engine.py — Renderer</p></span></div></foreignObject></g></g><g class="cluster" id="P3" data-look="classic"><rect style="" x="1369.2421875" y="354.625" width="1195.0625" height="128"/><g class="cluster-label" transform="translate(1850.390625, 354.625)"><foreignObject width="232.765625" height="24"><div xmlns="http://www.w3.org/1999/xhtml" style="display: table-cell; white-space: nowrap; line-height: 1.5;"><span class="nodeLabel"><p>core/pipeline.py — Orchestrator</p></span></div></foreignObject></g></g><g class="cluster" id="P2" data-look="classic"><rect style="" x="2678.4921875" y="604.625" width="411.84765625" height="356.58509063720703"/><g class="cluster-label" transform="translate(2761.548828125, 604.625)"><foreignObject width="245.734375" height="24"><div xmlns="http://www.w3.org/1999/xhtml" style="display: table-cell; white-space: nowrap; line-height: 1.5;"><span class="nodeLabel"><p>core/solver.py — Numerical Solver</p></span></div></foreignObject></g></g><g class="cluster" id="P1" data-look="classic"><rect style="" x="1220.72265625" y="604.625" width="1437.76953125" height="152"/><g class="cluster-label" transform="translate(1848.412109375, 604.625)"><foreignObject width="182.390625" height="24"><div xmlns="http://www.w3.org/1999/xhtml" style="display: table-cell; white-space: nowrap; line-height: 1.5;"><span class="nodeLabel"><p>core/agent.py — AI Agent</p></span></div></foreignObject></g></g><g class="cluster" id="P0" data-look="classic"><rect style="" x="693.078125" y="153.625" width="505.6484375" height="603"/><g class="cluster-label" transform="translate(877.16796875, 153.625)"><foreignObject width="137.46875" height="24"><div xmlns="http://www.w3.org/1999/xhtml" style="display: table-cell; white-space: nowrap; line-height: 1.5;"><span class="nodeLabel"><p>app.py — Gradio UI</p></span></div></foreignObject></g></g></g><g class="edgePaths"><path d="M993.731,63.549L1007.125,72.395C1020.518,81.241,1047.306,98.933,1060.7,113.946C1074.094,128.958,1074.094,141.292,1074.094,150.958C1074.094,160.625,1074.094,167.625,1074.094,171.125L1074.094,174.625" id="L_User_UI_Input_0" class="edge-thickness-normal edge-pattern-solid edge-thickness-normal edge-pattern-solid flowchart-link" style=";" data-edge="true" data-et="edge" data-id="L_User_UI_Input_0" data-points="W3sieCI6OTkzLjczMDg2MzU4MTU2NjYsInkiOjYzLjU0ODk5MDk3MDQ5OTMyfSx7IngiOjEwNzQuMDkzNzUsInkiOjExNi42MjV9LHsieCI6MTA3NC4wOTM3NSwieSI6MTUzLjYyNX0seyJ4IjoxMDc0LjA5Mzc1LCJ5IjoxNzguNjI1fV0=" marker-end="url(#my-svg_flowchart-v2-pointEnd)"/><path d="M884.521,641.625L892.614,635.458C900.707,629.292,916.893,616.958,924.985,600.625C933.078,584.292,933.078,563.958,933.078,543.625C933.078,523.292,933.078,502.958,933.078,482.125C933.078,461.292,933.078,439.958,933.078,418.625C933.078,397.292,933.078,375.958,933.078,357.125C933.078,338.292,933.078,321.958,933.078,299.125C933.078,276.292,933.078,246.958,933.078,221.625C933.078,196.292,933.078,174.958,933.078,158.125C933.078,141.292,933.078,128.958,935.624,116.768C938.169,104.578,943.26,92.532,945.805,86.508L948.35,80.485" id="L_UI_Output_User_0" class="edge-thickness-normal edge-pattern-solid edge-thickness-normal edge-pattern-solid flowchart-link" style=";" data-edge="true" data-et="edge" data-id="L_UI_Output_User_0" data-points="W3sieCI6ODg0LjUyMTMzMDE4MDkyMSwieSI6NjQxLjYyNX0seyJ4Ijo5MzMuMDc4MTI1LCJ5Ijo2MDQuNjI1fSx7IngiOjkzMy4wNzgxMjUsInkiOjU0My42MjV9LHsieCI6OTMzLjA3ODEyNSwieSI6NDgyLjYyNX0seyJ4Ijo5MzMuMDc4MTI1LCJ5Ijo0MTguNjI1fSx7IngiOjkzMy4wNzgxMjUsInkiOjM1NC42MjV9LHsieCI6OTMzLjA3ODEyNSwieSI6MzA1LjYyNX0seyJ4Ijo5MzMuMDc4MTI1LCJ5IjoyMTcuNjI1fSx7IngiOjkzMy4wNzgxMjUsInkiOjE1My42MjV9LHsieCI6OTMzLjA3ODEyNSwieSI6MTE2LjYyNX0seyJ4Ijo5NDkuOTA3NDE1NzUzMjU5LCJ5Ijo3Ni44MDA0NTAwOTAwNDA4MX1d" marker-end="url(#my-svg_flowchart-v2-pointEnd)"/><path d="M1074.094,256.625L1074.094,264.792C1074.094,272.958,1074.094,289.292,1074.094,305.625C1074.094,321.958,1074.094,338.292,1172.143,355.219C1270.193,372.146,1466.292,389.667,1564.341,398.428L1662.391,407.188" id="L_UI_Input_Pipeline_0" class="edge-thickness-normal edge-pattern-solid edge-thickness-normal edge-pattern-solid flowchart-link" style=";" data-edge="true" data-et="edge" data-id="L_UI_Input_Pipeline_0" data-points="W3sieCI6MTA3NC4wOTM3NSwieSI6MjU2LjYyNX0seyJ4IjoxMDc0LjA5Mzc1LCJ5IjozMDUuNjI1fSx7IngiOjEwNzQuMDkzNzUsInkiOjM1NC42MjV9LHsieCI6MTY2Ni4zNzUsInkiOjQwNy41NDQzOTg4MTc3MDM5fV0=" marker-end="url(#my-svg_flowchart-v2-pointEnd)"/><path d="M1666.375,448.961L1643.438,454.571C1620.5,460.182,1574.625,471.404,1517.551,487.181C1460.477,502.958,1392.203,523.292,1358.066,543.625C1323.93,563.958,1323.93,584.292,1331.223,598.313C1338.517,612.335,1353.105,620.046,1360.399,623.901L1367.692,627.756" id="L_Pipeline_Parse_0" class="edge-thickness-normal edge-pattern-solid edge-thickness-normal edge-pattern-solid flowchart-link" style=";" data-edge="true" data-et="edge" data-id="L_Pipeline_Parse_0" data-points="W3sieCI6MTY2Ni4zNzUsInkiOjQ0OC45NjA1MDMxMzUyNjQzfSx7IngiOjE1MjguNzUsInkiOjQ4Mi42MjV9LHsieCI6MTMyMy45Mjk2ODc1LCJ5Ijo1NDMuNjI1fSx7IngiOjEzMjMuOTI5Njg3NSwieSI6NjA0LjYyNX0seyJ4IjoxMzcxLjIyODcyMTIxNzEwNTIsInkiOjYyOS42MjV9XQ==" marker-end="url(#my-svg_flowchart-v2-pointEnd)"/><path d="M1568.775,629.625L1577.031,625.458C1585.288,621.292,1601.8,612.958,1610.056,598.625C1618.313,584.292,1618.313,563.958,1618.313,543.625C1618.313,523.292,1618.313,502.958,1628.891,488.857C1639.469,474.756,1660.625,466.888,1671.203,462.954L1681.781,459.019" id="L_Parse_Pipeline_0" class="edge-thickness-normal edge-pattern-solid edge-thickness-normal edge-pattern-solid flowchart-link" style=";" data-edge="true" data-et="edge" data-id="L_Parse_Pipeline_0" data-points="W3sieCI6MTU2OC43NzUwODIyMzY4NDIsInkiOjYyOS42MjV9LHsieCI6MTYxOC4zMTI1LCJ5Ijo2MDQuNjI1fSx7IngiOjE2MTguMzEyNSwieSI6NTQzLjYyNX0seyJ4IjoxNjE4LjMxMjUsInkiOjQ4Mi42MjV9LHsieCI6MTY4NS41MzA1MTc1NzgxMjUsInkiOjQ1Ny42MjV9XQ==" marker-end="url(#my-svg_flowchart-v2-pointEnd)"/><path d="M1914.406,432.035L1992.381,440.467C2070.355,448.898,2226.305,465.762,2370.736,484.36C2515.167,502.958,2648.079,523.292,2714.536,543.625C2780.992,563.958,2780.992,584.292,2787.965,598.303C2794.937,612.314,2808.882,620.004,2815.854,623.849L2822.826,627.693" id="L_Pipeline_Solve_0" class="edge-thickness-normal edge-pattern-solid edge-thickness-normal edge-pattern-solid flowchart-link" style=";" data-edge="true" data-et="edge" data-id="L_Pipeline_Solve_0" data-points="W3sieCI6MTkxNC40MDYyNSwieSI6NDMyLjAzNTE5MTU5NTY2MjV9LHsieCI6MjM4Mi4yNTM5MDYyNSwieSI6NDgyLjYyNX0seyJ4IjoyNzgwLjk5MjE4NzUsInkiOjU0My42MjV9LHsieCI6Mjc4MC45OTIxODc1LCJ5Ijo2MDQuNjI1fSx7IngiOjI4MjYuMzI5MTAxNTYyNSwieSI6NjI5LjYyNX1d" marker-end="url(#my-svg_flowchart-v2-pointEnd)"/><path d="M2958.749,629.625L2962.012,625.458C2965.274,621.292,2971.799,612.958,2975.062,598.625C2978.324,584.292,2978.324,563.958,2896.07,543.625C2813.815,523.292,2649.306,502.958,2472.65,484.091C2295.994,465.224,2107.192,447.823,2012.791,439.123L1918.389,430.422" id="L_Solve_Pipeline_0" class="edge-thickness-normal edge-pattern-solid edge-thickness-normal edge-pattern-solid flowchart-link" style=";" data-edge="true" data-et="edge" data-id="L_Solve_Pipeline_0" data-points="W3sieCI6Mjk1OC43NDkyODA0Mjc2MzE3LCJ5Ijo2MjkuNjI1fSx7IngiOjI5NzguMzI0MjE4NzUsInkiOjYwNC42MjV9LHsieCI6Mjk3OC4zMjQyMTg3NSwieSI6NTQzLjYyNX0seyJ4IjoyNDg0Ljc5Njg3NSwieSI6NDgyLjYyNX0seyJ4IjoxOTE0LjQwNjI1LCJ5Ijo0MzAuMDU0OTA4NjQ0OTc1NDZ9XQ==" marker-end="url(#my-svg_flowchart-v2-pointEnd)"/><path d="M2843.669,731.625L2837.53,735.792C2831.39,739.958,2819.111,748.292,2812.972,760.625C2806.832,772.958,2806.832,789.292,2816.87,805.507C2826.907,821.722,2846.982,837.819,2857.02,845.867L2867.057,853.915" id="L_Solve_Newton_0" class="edge-thickness-normal edge-pattern-solid edge-thickness-normal edge-pattern-solid flowchart-link" style=";" data-edge="true" data-et="edge" data-id="L_Solve_Newton_0" data-points="W3sieCI6Mjg0My42Njg5OTY3MTA1MjYyLCJ5Ijo3MzEuNjI1fSx7IngiOjI4MDYuODMyMDMxMjUsInkiOjc1Ni42MjV9LHsieCI6MjgwNi44MzIwMzEyNSwieSI6ODA1LjYyNX0seyJ4IjoyODcwLjE3NzcyOTA2OTEzMiwieSI6ODU2LjQxNzU0NTMxODYwMzV9XQ==" marker-end="url(#my-svg_flowchart-v2-pointEnd)"/><path d="M2938.758,856.418L2943.087,847.952C2947.416,839.487,2956.073,822.556,2960.402,805.924C2964.73,789.292,2964.73,772.958,2962.558,761.196C2960.385,749.433,2956.041,742.241,2953.868,738.645L2951.696,735.049" id="L_Newton_Solve_0" class="edge-thickness-normal edge-pattern-solid edge-thickness-normal edge-pattern-solid flowchart-link" style=";" data-edge="true" data-et="edge" data-id="L_Newton_Solve_0" data-points="W3sieCI6MjkzOC43NTg0Njc0ODg0NTEsInkiOjg1Ni40MTc1NDUzMTg2MDM1fSx7IngiOjI5NjQuNzMwNDY4NzUsInkiOjgwNS42MjV9LHsieCI6Mjk2NC43MzA0Njg3NSwieSI6NzU2LjYyNX0seyJ4IjoyOTQ5LjYyNzE1ODcxNzEwNTQsInkiOjczMS42MjV9XQ==" marker-end="url(#my-svg_flowchart-v2-pointEnd)"/><path d="M1810.538,457.625L1812.691,461.792C1814.843,465.958,1819.148,474.292,1821.301,488.625C1823.453,502.958,1823.453,523.292,1823.453,543.625C1823.453,563.958,1823.453,584.292,1836.508,599.038C1849.563,613.784,1875.674,622.944,1888.729,627.523L1901.784,632.103" id="L_Pipeline_GenCode_0" class="edge-thickness-normal edge-pattern-solid edge-thickness-normal edge-pattern-solid flowchart-link" style=";" data-edge="true" data-et="edge" data-id="L_Pipeline_GenCode_0" data-points="W3sieCI6MTgxMC41MzgwODU5Mzc1LCJ5Ijo0NTcuNjI1fSx7IngiOjE4MjMuNDUzMTI1LCJ5Ijo0ODIuNjI1fSx7IngiOjE4MjMuNDUzMTI1LCJ5Ijo1NDMuNjI1fSx7IngiOjE4MjMuNDUzMTI1LCJ5Ijo2MDQuNjI1fSx7IngiOjE5MDUuNTU4NTkzNzUsInkiOjYzMy40MjY5NzYwOTIxNjk1fV0=" marker-end="url(#my-svg_flowchart-v2-pointEnd)"/><path d="M2111.279,629.625L2117.094,625.458C2122.909,621.292,2134.538,612.958,2140.353,598.625C2146.168,584.292,2146.168,563.958,2131.867,543.625C2117.566,523.292,2088.965,502.958,2050.987,487.179C2013.008,471.399,1965.653,460.173,1941.976,454.56L1918.298,448.947" id="L_GenCode_Pipeline_0" class="edge-thickness-normal edge-pattern-solid edge-thickness-normal edge-pattern-solid flowchart-link" style=";" data-edge="true" data-et="edge" data-id="L_GenCode_Pipeline_0" data-points="W3sieCI6MjExMS4yNzg5ODg0ODY4NDIsInkiOjYyOS42MjV9LHsieCI6MjE0Ni4xNjc5Njg3NSwieSI6NjA0LjYyNX0seyJ4IjoyMTQ2LjE2Nzk2ODc1LCJ5Ijo1NDMuNjI1fSx7IngiOjIwNjAuMzYzMjgxMjUsInkiOjQ4Mi42MjV9LHsieCI6MTkxNC40MDYyNSwieSI6NDQ4LjAyNDI3MzY1MzI5MjR9XQ==" marker-end="url(#my-svg_flowchart-v2-pointEnd)"/><path d="M1666.375,443.302L1633.438,449.856C1600.5,456.409,1534.625,469.517,1307.876,486.238C1081.128,502.958,693.505,523.292,499.694,543.625C305.883,563.958,305.883,584.292,313.53,600.224C321.176,616.156,336.47,627.686,344.116,633.452L351.763,639.217" id="L_Pipeline_Render_0" class="edge-thickness-normal edge-pattern-solid edge-thickness-normal edge-pattern-solid flowchart-link" style=";" data-edge="true" data-et="edge" data-id="L_Pipeline_Render_0" data-points="W3sieCI6MTY2Ni4zNzUsInkiOjQ0My4zMDE2MDkxODE0NDI4fSx7IngiOjE0NjguNzUsInkiOjQ4Mi42MjV9LHsieCI6MzA1Ljg4MjgxMjUsInkiOjU0My42MjV9LHsieCI6MzA1Ljg4MjgxMjUsInkiOjYwNC42MjV9LHsieCI6MzU0Ljk1Njg3NzA1NTkyMTA0LCJ5Ijo2NDEuNjI1fV0=" marker-end="url(#my-svg_flowchart-v2-pointEnd)"/><path d="M487.889,641.625L500.729,635.458C513.569,629.292,539.249,616.958,552.09,600.625C564.93,584.292,564.93,563.958,718.9,543.625C872.87,523.292,1180.81,502.958,1363.732,486.649C1546.654,470.339,1604.558,458.054,1633.51,451.911L1662.462,445.768" id="L_Render_Pipeline_0" class="edge-thickness-normal edge-pattern-solid edge-thickness-normal edge-pattern-solid flowchart-link" style=";" data-edge="true" data-et="edge" data-id="L_Render_Pipeline_0" data-points="W3sieCI6NDg3Ljg4ODgyNjA2OTA3ODk2LCJ5Ijo2NDEuNjI1fSx7IngiOjU2NC45Mjk2ODc1LCJ5Ijo2MDQuNjI1fSx7IngiOjU2NC45Mjk2ODc1LCJ5Ijo1NDMuNjI1fSx7IngiOjE0ODguNzUsInkiOjQ4Mi42MjV9LHsieCI6MTY2Ni4zNzUsInkiOjQ0NC45Mzc3Njg3MTI3Njg3M31d" marker-end="url(#my-svg_flowchart-v2-pointEnd)"/><path d="M1914.406,440.926L1953.054,447.876C1991.702,454.826,2068.997,468.725,2132.934,485.842C2196.871,502.958,2247.449,523.292,2272.738,543.625C2298.027,563.958,2298.027,584.292,2311.928,600.364C2325.829,616.437,2353.631,628.249,2367.532,634.155L2381.434,640.061" id="L_Pipeline_FixCode_0" class="edge-thickness-normal edge-pattern-solid edge-thickness-normal edge-pattern-solid flowchart-link" style=";" data-edge="true" data-et="edge" data-id="L_Pipeline_FixCode_0" data-points="W3sieCI6MTkxNC40MDYyNSwieSI6NDQwLjkyNjA2MTM0Mjc1Nzc1fSx7IngiOjIxNDYuMjkyOTY4NzUsInkiOjQ4Mi42MjV9LHsieCI6MjI5OC4wMjczNDM3NSwieSI6NTQzLjYyNX0seyJ4IjoyMjk4LjAyNzM0Mzc1LCJ5Ijo2MDQuNjI1fSx7IngiOjIzODUuMTE1MDI4NzgyODk0NiwieSI6NjQxLjYyNX1d" marker-end="url(#my-svg_flowchart-v2-pointEnd)"/><path d="M2529.657,641.625L2537.998,635.458C2546.338,629.292,2563.019,616.958,2571.359,600.625C2579.699,584.292,2579.699,563.958,2532.604,543.625C2485.509,523.292,2391.319,502.958,2281.098,484.819C2170.878,466.68,2044.626,450.734,1981.5,442.762L1918.375,434.789" id="L_FixCode_Pipeline_0" class="edge-thickness-normal edge-pattern-solid edge-thickness-normal edge-pattern-solid flowchart-link" style=";" data-edge="true" data-et="edge" data-id="L_FixCode_Pipeline_0" data-points="W3sieCI6MjUyOS42NTcxNzUxNjQ0NzM4LCJ5Ijo2NDEuNjI1fSx7IngiOjI1NzkuNjk5MjE4NzUsInkiOjYwNC42MjV9LHsieCI6MjU3OS42OTkyMTg3NSwieSI6NTQzLjYyNX0seyJ4IjoyMjk3LjEyODkwNjI1LCJ5Ijo0ODIuNjI1fSx7IngiOjE5MTQuNDA2MjUsInkiOjQzNC4yODc5MTc3MTA1NDE1NH1d" marker-end="url(#my-svg_flowchart-v2-pointEnd)"/><path d="M338.708,719.625L327.96,725.792C317.212,731.958,295.715,744.292,284.967,758.625C274.219,772.958,274.219,789.292,257.784,807.761C241.348,826.231,208.478,846.836,192.043,857.139L175.608,867.442" id="L_Render_TempFS_0" class="edge-thickness-normal edge-pattern-solid edge-thickness-normal edge-pattern-solid flowchart-link" style=";" data-edge="true" data-et="edge" data-id="L_Render_TempFS_0" data-points="W3sieCI6MzM4LjcwODIxMzQwNDYwNTI2LCJ5Ijo3MTkuNjI1fSx7IngiOjI3NC4yMTg3NSwieSI6NzU2LjYyNX0seyJ4IjoyNzQuMjE4NzUsInkiOjgwNS42MjV9LHsieCI6MTcyLjIxODc1LCJ5Ijo4NjkuNTY2NzYxMDkyNzYwNX1d" marker-end="url(#my-svg_flowchart-v2-pointEnd)"/><path d="M421.531,719.625L423.879,725.792C426.226,731.958,430.922,744.292,433.27,758.625C435.617,772.958,435.617,789.292,392.363,808.7C349.108,828.107,262.599,850.59,219.345,861.831L176.09,873.072" id="L_Render_TempFS_2" class="edge-thickness-normal edge-pattern-solid edge-thickness-normal edge-pattern-solid flowchart-link" style=";" data-edge="true" data-et="edge" data-id="L_Render_TempFS_2" data-points="W3sieCI6NDIxLjUzMTA5NTgwNTkyMTA0LCJ5Ijo3MTkuNjI1fSx7IngiOjQzNS42MTcxODc1LCJ5Ijo3NTYuNjI1fSx7IngiOjQzNS42MTcxODc1LCJ5Ijo4MDUuNjI1fSx7IngiOjE3Mi4yMTg3NSwieSI6ODc0LjA3ODQ5MTU4NjU4NX1d" marker-end="url(#my-svg_flowchart-v2-pointEnd)"/><path d="M172.219,914.891L204.769,922.611C237.319,930.331,302.419,945.77,334.969,959.657C367.52,973.543,367.52,985.877,378.532,997.897C389.545,1009.918,411.57,1021.625,422.582,1027.479L433.595,1033.333" id="L_TempFS_FindMP4_0" class="edge-thickness-normal edge-pattern-solid edge-thickness-normal edge-pattern-solid flowchart-link" style=";" data-edge="true" data-et="edge" data-id="L_TempFS_FindMP4_0" data-points="W3sieCI6MTcyLjIxODc1LCJ5Ijo5MTQuODkxMTgyNjUzMjg0NX0seyJ4IjozNjcuNTE5NTMxMjUsInkiOjk2MS4yMTAwOTA2MzcyMDd9LHsieCI6MzY3LjUxOTUzMTI1LCJ5Ijo5OTguMjEwMDkwNjM3MjA3fSx7IngiOjQzNy4xMjY1NDE5NDA3ODk1LCJ5IjoxMDM1LjIxMDA5MDYzNzIwN31d" marker-end="url(#my-svg_flowchart-v2-pointEnd)"/><path d="M530.776,1035.21L533.982,1029.043C537.189,1022.877,543.602,1010.543,546.809,998.21C550.016,985.877,550.016,973.543,550.016,956.411C550.016,939.279,550.016,917.348,550.016,891.418C550.016,865.487,550.016,835.556,550.016,812.424C550.016,789.292,550.016,772.958,538.975,758.937C527.934,744.916,505.852,733.208,494.811,727.353L483.77,721.499" id="L_FindMP4_Render_0" class="edge-thickness-normal edge-pattern-solid edge-thickness-normal edge-pattern-solid flowchart-link" style=";" data-edge="true" data-et="edge" data-id="L_FindMP4_Render_0" data-points="W3sieCI6NTMwLjc3NTg1MzIwNzIzNjksInkiOjEwMzUuMjEwMDkwNjM3MjA3fSx7IngiOjU1MC4wMTU2MjUsInkiOjk5OC4yMTAwOTA2MzcyMDd9LHsieCI6NTUwLjAxNTYyNSwieSI6OTYxLjIxMDA5MDYzNzIwN30seyJ4Ijo1NTAuMDE1NjI1LCJ5Ijo4OTUuNDE3NTQ1MzE4NjAzNX0seyJ4Ijo1NTAuMDE1NjI1LCJ5Ijo4MDUuNjI1fSx7IngiOjU1MC4wMTU2MjUsInkiOjc1Ni42MjV9LHsieCI6NDgwLjIzNTU1NzE1NDYwNTI2LCJ5Ijo3MTkuNjI1fV0=" marker-end="url(#my-svg_flowchart-v2-pointEnd)"/><path d="M1467.719,735.625L1467.719,739.125C1467.719,742.625,1467.719,749.625,1467.719,761.292C1467.719,772.958,1467.719,789.292,1559.249,810.893C1650.78,832.494,1833.841,859.362,1925.371,872.797L2016.902,886.231" id="L_Parse_GeminiAPI_0" class="edge-thickness-normal edge-pattern-solid edge-thickness-normal edge-pattern-solid flowchart-link" style=";" data-edge="true" data-et="edge" data-id="L_Parse_GeminiAPI_0" data-points="W3sieCI6MTQ2Ny43MTg3NSwieSI6NzMxLjYyNX0seyJ4IjoxNDY3LjcxODc1LCJ5Ijo3NTYuNjI1fSx7IngiOjE0NjcuNzE4NzUsInkiOjgwNS42MjV9LHsieCI6MjAyMC44NTkzNzUsInkiOjg4Ni44MTE3NjIyNzcyOTAyfV0=" marker-start="url(#my-svg_flowchart-v2-pointStart)" marker-end="url(#my-svg_flowchart-v2-pointEnd)"/><path d="M2040.105,735.625L2040.105,739.125C2040.105,742.625,2040.105,749.625,2040.105,761.292C2040.105,772.958,2040.105,789.292,2043.652,805.619C2047.198,821.946,2054.29,838.267,2057.836,846.427L2061.383,854.588" id="L_GenCode_GeminiAPI_0" class="edge-thickness-normal edge-pattern-solid edge-thickness-normal edge-pattern-solid flowchart-link" style=";" data-edge="true" data-et="edge" data-id="L_GenCode_GeminiAPI_0" data-points="W3sieCI6MjA0MC4xMDU0Njg3NSwieSI6NzMxLjYyNX0seyJ4IjoyMDQwLjEwNTQ2ODc1LCJ5Ijo3NTYuNjI1fSx7IngiOjIwNDAuMTA1NDY4NzUsInkiOjgwNS42MjV9LHsieCI6MjA2Mi45NzY3MjYxNDE5NDE1LCJ5Ijo4NTguMjU2MTEyMjcwNDd9XQ==" marker-start="url(#my-svg_flowchart-v2-pointStart)" marker-end="url(#my-svg_flowchart-v2-pointEnd)"/><path d="M2476.91,723.625L2476.91,729.125C2476.91,734.625,2476.91,745.625,2476.91,759.292C2476.91,772.958,2476.91,789.292,2421.096,810.069C2365.282,830.846,2253.654,856.067,2197.841,868.678L2142.027,881.289" id="L_FixCode_GeminiAPI_0" class="edge-thickness-normal edge-pattern-solid edge-thickness-normal edge-pattern-solid flowchart-link" style=";" data-edge="true" data-et="edge" data-id="L_FixCode_GeminiAPI_0" data-points="W3sieCI6MjQ3Ni45MTAxNTYyNSwieSI6NzE5LjYyNX0seyJ4IjoyNDc2LjkxMDE1NjI1LCJ5Ijo3NTYuNjI1fSx7IngiOjI0NzYuOTEwMTU2MjUsInkiOjgwNS42MjV9LHsieCI6MjEzOC4xMjUsInkiOjg4Mi4xNzAwNTgwNjk1NDIzfV0=" marker-start="url(#my-svg_flowchart-v2-pointStart)" marker-end="url(#my-svg_flowchart-v2-pointEnd)"/><path d="M2599.305,421.11L2388.395,431.362C2177.484,441.615,1755.664,462.12,1563.699,482.539C1371.734,502.958,1409.625,523.292,1428.57,543.625C1447.516,563.958,1447.516,584.292,1448.452,597.981C1449.388,611.67,1451.261,618.715,1452.197,622.237L1453.134,625.759" id="L_EnvFile_Parse_0" class="edge-thickness-normal edge-pattern-solid edge-thickness-normal edge-pattern-solid flowchart-link" style=";" data-edge="true" data-et="edge" data-id="L_EnvFile_Parse_0" data-points="W3sieCI6MjU5OS4zMDQ2ODc1LCJ5Ijo0MjEuMTA5ODUwNjQyNjQ2MDV9LHsieCI6MTMzMy44NDM3NSwieSI6NDgyLjYyNX0seyJ4IjoxNDQ3LjUxNTYyNSwieSI6NTQzLjYyNX0seyJ4IjoxNDQ3LjUxNTYyNSwieSI6NjA0LjYyNX0seyJ4IjoxNDU0LjE2MTM4OTgwMjYzMTcsInkiOjYyOS42MjV9XQ==" marker-end="url(#my-svg_flowchart-v2-pointEnd)"/><path d="M2637.319,454.617L2635.66,459.285C2634,463.953,2630.682,473.289,2524.18,488.124C2417.678,502.958,2207.993,523.292,2103.151,543.625C1998.309,563.958,1998.309,584.292,2000.279,598.041C2002.249,611.79,2006.19,618.955,2008.16,622.538L2010.13,626.12" id="L_EnvFile_GenCode_0" class="edge-thickness-normal edge-pattern-solid edge-thickness-normal edge-pattern-solid flowchart-link" style=";" data-edge="true" data-et="edge" data-id="L_EnvFile_GenCode_0" data-points="W3sieCI6MjYzNy4zMTg5NTk2NTg1LCJ5Ijo0NTQuNjE2ODQyMzk5NTAyOX0seyJ4IjoyNjI3LjM2MzI4MTI1LCJ5Ijo0ODIuNjI1fSx7IngiOjE5OTguMzA4NTkzNzUsInkiOjU0My42MjV9LHsieCI6MTk5OC4zMDg1OTM3NSwieSI6NjA0LjYyNX0seyJ4IjoyMDEyLjA1NzU2NTc4OTQ3MzgsInkiOjYyOS42MjV9XQ==" marker-end="url(#my-svg_flowchart-v2-pointEnd)"/><path d="M2701.539,432.846L2731.359,441.143C2761.18,449.439,2820.82,466.032,2776.962,484.495C2733.103,502.958,2585.745,523.292,2512.066,543.625C2438.387,563.958,2438.387,584.292,2441.211,600.03C2444.036,615.769,2449.684,626.913,2452.509,632.485L2455.333,638.057" id="L_EnvFile_FixCode_0" class="edge-thickness-normal edge-pattern-solid edge-thickness-normal edge-pattern-solid flowchart-link" style=";" data-edge="true" data-et="edge" data-id="L_EnvFile_FixCode_0" data-points="W3sieCI6MjcwMS41MzkwNjI1LCJ5Ijo0MzIuODQ2NDk3NzA3NTkwNH0seyJ4IjoyODgwLjQ2MDkzNzUsInkiOjQ4Mi42MjV9LHsieCI6MjQzOC4zODY3MTg3NSwieSI6NTQzLjYyNX0seyJ4IjoyNDM4LjM4NjcxODc1LCJ5Ijo2MDQuNjI1fSx7IngiOjI0NTcuMTQxNTUwMTY0NDczOCwieSI6NjQxLjYyNX1d" marker-end="url(#my-svg_flowchart-v2-pointEnd)"/><path d="M1666.375,446.806L1640.104,452.776C1613.833,458.746,1561.292,470.685,1419.076,486.822C1276.859,502.958,1044.969,523.292,929.023,543.625C813.078,563.958,813.078,584.292,814.55,599.981C816.023,615.67,818.967,626.715,820.44,632.237L821.912,637.76" id="L_Pipeline_UI_Output_0" class="edge-thickness-normal edge-pattern-solid edge-thickness-normal edge-pattern-solid flowchart-link" style=";" data-edge="true" data-et="edge" data-id="L_Pipeline_UI_Output_0" data-points="W3sieCI6MTY2Ni4zNzUsInkiOjQ0Ni44MDYzMDM3NDQ3OTg4N30seyJ4IjoxNTA4Ljc1LCJ5Ijo0ODIuNjI1fSx7IngiOjgxMy4wNzgxMjUsInkiOjU0My42MjV9LHsieCI6ODEzLjA3ODEyNSwieSI6NjA0LjYyNX0seyJ4Ijo4MjIuOTQyMzgyODEyNSwieSI6NjQxLjYyNX1d" marker-end="url(#my-svg_flowchart-v2-pointEnd)"/></g><g class="edgeLabels"><g class="edgeLabel" transform="translate(1074.09375, 116.625)"><g class="label" data-id="L_User_UI_Input_0" transform="translate(-43.2578125, -12)"><foreignObject width="86.515625" height="24"><div xmlns="http://www.w3.org/1999/xhtml" class="labelBkg" style="display: table-cell; white-space: nowrap; line-height: 1.5; max-width: 200px; text-align: center;"><span class="edgeLabel"><p>prompt text</p></span></div></foreignObject></g></g><g class="edgeLabel" transform="translate(933.078125, 305.625)"><g class="label" data-id="L_UI_Output_User_0" transform="translate(-72.2890625, -24)"><foreignObject width="144.578125" height="48"><div xmlns="http://www.w3.org/1999/xhtml" class="labelBkg" style="display: table-cell; white-space: nowrap; line-height: 1.5; max-width: 200px; text-align: center;"><span class="edgeLabel"><p>video, solution info,<br />code &amp; logs</p></span></div></foreignObject></g></g><g class="edgeLabel" transform="translate(1074.09375, 305.625)"><g class="label" data-id="L_UI_Input_Pipeline_0" transform="translate(-48.7265625, -12)"><foreignObject width="97.453125" height="24"><div xmlns="http://www.w3.org/1999/xhtml" class="labelBkg" style="display: table-cell; white-space: nowrap; line-height: 1.5; max-width: 200px; text-align: center;"><span class="edgeLabel"><p>prompt string</p></span></div></foreignObject></g></g><g class="edgeLabel" transform="translate(1323.9296875, 543.625)"><g class="label" data-id="L_Pipeline_Parse_0" transform="translate(-45.40625, -12)"><foreignObject width="90.8125" height="24"><div xmlns="http://www.w3.org/1999/xhtml" class="labelBkg" style="display: table-cell; white-space: nowrap; line-height: 1.5; max-width: 200px; text-align: center;"><span class="edgeLabel"><p>user_prompt</p></span></div></foreignObject></g></g><g class="edgeLabel" transform="translate(1618.3125, 543.625)"><g class="label" data-id="L_Parse_Pipeline_0" transform="translate(-92.6171875, -24)"><foreignObject width="185.234375" height="48"><div xmlns="http://www.w3.org/1999/xhtml" class="labelBkg" style="display: table-cell; white-space: nowrap; line-height: 1.5; max-width: 200px; text-align: center;"><span class="edgeLabel"><p>parsed system dict<br />(equations, vars, guesses)</p></span></div></foreignObject></g></g><g class="edgeLabel" transform="translate(2780.9921875, 543.625)"><g class="label" data-id="L_Pipeline_Solve_0" transform="translate(-67.1171875, -12)"><foreignObject width="134.234375" height="24"><div xmlns="http://www.w3.org/1999/xhtml" class="labelBkg" style="display: table-cell; white-space: nowrap; line-height: 1.5; max-width: 200px; text-align: center;"><span class="edgeLabel"><p>parsed system dict</p></span></div></foreignObject></g></g><g class="edgeLabel" transform="translate(2978.32421875, 543.625)"><g class="label" data-id="L_Solve_Pipeline_0" transform="translate(-97.96875, -24)"><foreignObject width="195.9375" height="48"><div xmlns="http://www.w3.org/1999/xhtml" class="labelBkg" style="display: table-cell; white-space: nowrap; line-height: 1.5; max-width: 200px; text-align: center;"><span class="edgeLabel"><p>SolutionResult<br />(solutions, newton_history)</p></span></div></foreignObject></g></g><g class="edgeLabel" transform="translate(2806.83203125, 805.625)"><g class="label" data-id="L_Solve_Newton_0" transform="translate(-71.6796875, -12)"><foreignObject width="143.359375" height="24"><div xmlns="http://www.w3.org/1999/xhtml" class="labelBkg" style="display: table-cell; white-space: nowrap; line-height: 1.5; max-width: 200px; text-align: center;"><span class="edgeLabel"><p>equations, Jacobian</p></span></div></foreignObject></g></g><g class="edgeLabel" transform="translate(2964.73046875, 805.625)"><g class="label" data-id="L_Newton_Solve_0" transform="translate(-66.21875, -12)"><foreignObject width="132.4375" height="24"><div xmlns="http://www.w3.org/1999/xhtml" class="labelBkg" style="display: table-cell; white-space: nowrap; line-height: 1.5; max-width: 200px; text-align: center;"><span class="edgeLabel"><p>list of NewtonStep</p></span></div></foreignObject></g></g><g class="edgeLabel" transform="translate(1823.453125, 543.625)"><g class="label" data-id="L_Pipeline_GenCode_0" transform="translate(-92.5234375, -24)"><foreignObject width="185.046875" height="48"><div xmlns="http://www.w3.org/1999/xhtml" class="labelBkg" style="display: table-cell; white-space: nowrap; line-height: 1.5; max-width: 200px; text-align: center;"><span class="edgeLabel"><p>parsed_system, solutions,<br />newton_histories</p></span></div></foreignObject></g></g><g class="edgeLabel" transform="translate(2146.16796875, 543.625)"><g class="label" data-id="L_GenCode_Pipeline_0" transform="translate(-69.6796875, -12)"><foreignObject width="139.359375" height="24"><div xmlns="http://www.w3.org/1999/xhtml" class="labelBkg" style="display: table-cell; white-space: nowrap; line-height: 1.5; max-width: 200px; text-align: center;"><span class="edgeLabel"><p>Manim Python code</p></span></div></foreignObject></g></g><g class="edgeLabel" transform="translate(305.8828125, 543.625)"><g class="label" data-id="L_Pipeline_Render_0" transform="translate(-65.2578125, -12)"><foreignObject width="130.515625" height="24"><div xmlns="http://www.w3.org/1999/xhtml" class="labelBkg" style="display: table-cell; white-space: nowrap; line-height: 1.5; max-width: 200px; text-align: center;"><span class="edgeLabel"><p>Manim code string</p></span></div></foreignObject></g></g><g class="edgeLabel" transform="translate(564.9296875, 543.625)"><g class="label" data-id="L_Render_Pipeline_0" transform="translate(-58.96875, -12)"><foreignObject width="117.9375" height="24"><div xmlns="http://www.w3.org/1999/xhtml" class="labelBkg" style="display: table-cell; white-space: nowrap; line-height: 1.5; max-width: 200px; text-align: center;"><span class="edgeLabel"><p>video_path, logs</p></span></div></foreignObject></g></g><g class="edgeLabel" transform="translate(2298.02734375, 543.625)"><g class="label" data-id="L_Pipeline_FixCode_0" transform="translate(-62.1796875, -12)"><foreignObject width="124.359375" height="24"><div xmlns="http://www.w3.org/1999/xhtml" class="labelBkg" style="display: table-cell; white-space: nowrap; line-height: 1.5; max-width: 200px; text-align: center;"><span class="edgeLabel"><p>code + error_logs</p></span></div></foreignObject></g></g><g class="edgeLabel" transform="translate(2579.69921875, 543.625)"><g class="label" data-id="L_FixCode_Pipeline_0" transform="translate(-63.1328125, -12)"><foreignObject width="126.265625" height="24"><div xmlns="http://www.w3.org/1999/xhtml" class="labelBkg" style="display: table-cell; white-space: nowrap; line-height: 1.5; max-width: 200px; text-align: center;"><span class="edgeLabel"><p>fixed Manim code</p></span></div></foreignObject></g></g><g class="edgeLabel" transform="translate(274.21875, 805.625)"><g class="label" data-id="L_Render_TempFS_0" transform="translate(-47, -12)"><foreignObject width="94" height="24"><div xmlns="http://www.w3.org/1999/xhtml" class="labelBkg" style="display: table-cell; white-space: nowrap; line-height: 1.5; max-width: 200px; text-align: center;"><span class="edgeLabel"><p>write .py file</p></span></div></foreignObject></g></g><g class="edgeLabel" transform="translate(435.6171875, 805.625)"><g class="label" data-id="L_Render_TempFS_2" transform="translate(-94.3984375, -12)"><foreignObject width="188.796875" height="24"><div xmlns="http://www.w3.org/1999/xhtml" class="labelBkg" style="display: table-cell; white-space: nowrap; line-height: 1.5; max-width: 200px; text-align: center;"><span class="edgeLabel"><p>subprocess: manim render</p></span></div></foreignObject></g></g><g class="edgeLabel" transform="translate(367.51953125, 998.210090637207)"><g class="label" data-id="L_TempFS_FindMP4_0" transform="translate(-36.84375, -12)"><foreignObject width="73.6875" height="24"><div xmlns="http://www.w3.org/1999/xhtml" class="labelBkg" style="display: table-cell; white-space: nowrap; line-height: 1.5; max-width: 200px; text-align: center;"><span class="edgeLabel"><p>.mp4 path</p></span></div></foreignObject></g></g><g class="edgeLabel" transform="translate(550.015625, 895.4175453186035)"><g class="label" data-id="L_FindMP4_Render_0" transform="translate(-39.7109375, -12)"><foreignObject width="79.421875" height="24"><div xmlns="http://www.w3.org/1999/xhtml" class="labelBkg" style="display: table-cell; white-space: nowrap; line-height: 1.5; max-width: 200px; text-align: center;"><span class="edgeLabel"><p>video_path</p></span></div></foreignObject></g></g><g class="edgeLabel" transform="translate(1467.71875, 805.625)"><g class="label" data-id="L_Parse_GeminiAPI_0" transform="translate(-87.1484375, -12)"><foreignObject width="174.296875" height="24"><div xmlns="http://www.w3.org/1999/xhtml" class="labelBkg" style="display: table-cell; white-space: nowrap; line-height: 1.5; max-width: 200px; text-align: center;"><span class="edgeLabel"><p>prompt / JSON response</p></span></div></foreignObject></g></g><g class="edgeLabel" transform="translate(2040.10546875, 805.625)"><g class="label" data-id="L_GenCode_GeminiAPI_0" transform="translate(-100, -24)"><foreignObject width="200" height="48"><div xmlns="http://www.w3.org/1999/xhtml" class="labelBkg" style="display: table; white-space: break-spaces; line-height: 1.5; max-width: 200px; text-align: center; width: 200px;"><span class="edgeLabel"><p>system data / code response</p></span></div></foreignObject></g></g><g class="edgeLabel" transform="translate(2476.91015625, 805.625)"><g class="label" data-id="L_FixCode_GeminiAPI_0" transform="translate(-93.8828125, -12)"><foreignObject width="187.765625" height="24"><div xmlns="http://www.w3.org/1999/xhtml" class="labelBkg" style="display: table-cell; white-space: nowrap; line-height: 1.5; max-width: 200px; text-align: center;"><span class="edgeLabel"><p>code + errors / fixed code</p></span></div></foreignObject></g></g><g class="edgeLabel" transform="translate(1447.515625, 543.625)"><g class="label" data-id="L_EnvFile_Parse_0" transform="translate(-58.1796875, -12)"><foreignObject width="116.359375" height="24"><div xmlns="http://www.w3.org/1999/xhtml" class="labelBkg" style="display: table-cell; white-space: nowrap; line-height: 1.5; max-width: 200px; text-align: center;"><span class="edgeLabel"><p>GEMINI_API_KEY</p></span></div></foreignObject></g></g><g class="edgeLabel" transform="translate(1998.30859375, 543.625)"><g class="label" data-id="L_EnvFile_GenCode_0" transform="translate(-58.1796875, -12)"><foreignObject width="116.359375" height="24"><div xmlns="http://www.w3.org/1999/xhtml" class="labelBkg" style="display: table-cell; white-space: nowrap; line-height: 1.5; max-width: 200px; text-align: center;"><span class="edgeLabel"><p>GEMINI_API_KEY</p></span></div></foreignObject></g></g><g class="edgeLabel" transform="translate(2438.38671875, 543.625)"><g class="label" data-id="L_EnvFile_FixCode_0" transform="translate(-58.1796875, -12)"><foreignObject width="116.359375" height="24"><div xmlns="http://www.w3.org/1999/xhtml" class="labelBkg" style="display: table-cell; white-space: nowrap; line-height: 1.5; max-width: 200px; text-align: center;"><span class="edgeLabel"><p>GEMINI_API_KEY</p></span></div></foreignObject></g></g><g class="edgeLabel" transform="translate(813.078125, 543.625)"><g class="label" data-id="L_Pipeline_UI_Output_0" transform="translate(-100, -36)"><foreignObject width="200" height="72"><div xmlns="http://www.w3.org/1999/xhtml" class="labelBkg" style="display: table; white-space: break-spaces; line-height: 1.5; max-width: 200px; text-align: center; width: 200px;"><span class="edgeLabel"><p>PipelineResult<br />(video, solution, code, logs)</p></span></div></foreignObject></g></g></g><g class="nodes"><g class="node default" id="flowchart-User-0" transform="translate(963.84765625, 43.8125)"><circle class="basic label-container" style="" r="35.8125" cx="0" cy="0"/><g class="label" style="" transform="translate(-28.3125, -12)"><rect/><foreignObject width="56.625" height="24"><div xmlns="http://www.w3.org/1999/xhtml" style="display: table-cell; white-space: nowrap; line-height: 1.5; max-width: 200px; text-align: center;"><span class="nodeLabel"><p>👤 User</p></span></div></foreignObject></g></g><g class="node default" id="flowchart-GeminiAPI-1" transform="translate(2079.4921875, 895.4175453186035)"><path d="M0,12.10093518219929 a58.6328125,12.10093518219929 0,0,0 117.265625,0 a58.6328125,12.10093518219929 0,0,0 -117.265625,0 l0,51.100935182199294 a58.6328125,12.10093518219929 0,0,0 117.265625,0 l0,-51.100935182199294" class="basic label-container" style="" transform="translate(-58.6328125, -37.65140277329894)"/><g class="label" style="" transform="translate(-51.1328125, -2)"><rect/><foreignObject width="102.265625" height="24"><div xmlns="http://www.w3.org/1999/xhtml" style="display: table-cell; white-space: nowrap; line-height: 1.5; max-width: 200px; text-align: center;"><span class="nodeLabel"><p>☁️ Gemini API</p></span></div></foreignObject></g></g><g class="node default" id="flowchart-TempFS-2" transform="translate(90.109375, 895.4175453186035)"><path d="M0,14.195029713668287 a82.109375,14.195029713668287 0,0,0 164.21875,0 a82.109375,14.195029713668287 0,0,0 -164.21875,0 l0,53.19502971366829 a82.109375,14.195029713668287 0,0,0 164.21875,0 l0,-53.19502971366829" class="basic label-container" style="" transform="translate(-82.109375, -40.79254457050243)"/><g class="label" style="" transform="translate(-74.609375, -2)"><rect/><foreignObject width="149.21875" height="24"><div xmlns="http://www.w3.org/1999/xhtml" style="display: table-cell; white-space: nowrap; line-height: 1.5; max-width: 200px; text-align: center;"><span class="nodeLabel"><p>💾 Temp File System</p></span></div></foreignObject></g></g><g class="node default" id="flowchart-EnvFile-3" transform="translate(2650.421875, 418.625)"><path d="M0,11.247679295881179 a51.1171875,11.247679295881179 0,0,0 102.234375,0 a51.1171875,11.247679295881179 0,0,0 -102.234375,0 l0,50.24767929588118 a51.1171875,11.247679295881179 0,0,0 102.234375,0 l0,-50.24767929588118" class="basic label-container" style="" transform="translate(-51.1171875, -36.37151894382177)"/><g class="label" style="" transform="translate(-43.6171875, -2)"><rect/><foreignObject width="87.234375" height="24"><div xmlns="http://www.w3.org/1999/xhtml" style="display: table-cell; white-space: nowrap; line-height: 1.5; max-width: 200px; text-align: center;"><span class="nodeLabel"><p>📄 .env File</p></span></div></foreignObject></g></g><g class="node default" id="flowchart-UI_Input-4" transform="translate(1074.09375, 217.625)"><rect class="basic label-container" style="" x="-89.6328125" y="-39" width="179.265625" height="78"/><g class="label" style="" transform="translate(-59.6328125, -24)"><rect/><foreignObject width="119.265625" height="48"><div xmlns="http://www.w3.org/1999/xhtml" style="display: table-cell; white-space: nowrap; line-height: 1.5; max-width: 200px; text-align: center;"><span class="nodeLabel"><p>1.0 Receive User<br />Input</p></span></div></foreignObject></g></g><g class="node default" id="flowchart-UI_Output-5" transform="translate(833.33984375, 680.625)"><rect class="basic label-container" style="" x="-69.1328125" y="-39" width="138.265625" height="78"/><g class="label" style="" transform="translate(-39.1328125, -24)"><rect/><foreignObject width="78.265625" height="48"><div xmlns="http://www.w3.org/1999/xhtml" style="display: table-cell; white-space: nowrap; line-height: 1.5; max-width: 200px; text-align: center;"><span class="nodeLabel"><p>1.1 Display<br />Results</p></span></div></foreignObject></g></g><g class="node default" id="flowchart-Parse-6" transform="translate(1467.71875, 680.625)"><rect class="basic label-container" style="" x="-130" y="-51" width="260" height="102"/><g class="label" style="" transform="translate(-100, -36)"><rect/><foreignObject width="200" height="72"><div xmlns="http://www.w3.org/1999/xhtml" style="display: table; white-space: break-spaces; line-height: 1.5; max-width: 200px; text-align: center; width: 200px;"><span class="nodeLabel"><p>2.0 analyze_nonlinear_system<br />Parse NL → JSON</p></span></div></foreignObject></g></g><g class="node default" id="flowchart-GenCode-7" transform="translate(2040.10546875, 680.625)"><rect class="basic label-container" style="" x="-134.546875" y="-51" width="269.09375" height="102"/><g class="label" style="" transform="translate(-104.546875, -36)"><rect/><foreignObject width="209.09375" height="72"><div xmlns="http://www.w3.org/1999/xhtml" style="display: table; white-space: break-spaces; line-height: 1.5; max-width: 200px; text-align: center; width: 200px;"><span class="nodeLabel"><p>2.1 generate_solution_animation<br />Create Manim Code</p></span></div></foreignObject></g></g><g class="node default" id="flowchart-FixCode-8" transform="translate(2476.91015625, 680.625)"><rect class="basic label-container" style="" x="-102.5859375" y="-39" width="205.171875" height="78"/><g class="label" style="" transform="translate(-72.5859375, -24)"><rect/><foreignObject width="145.171875" height="48"><div xmlns="http://www.w3.org/1999/xhtml" style="display: table-cell; white-space: nowrap; line-height: 1.5; max-width: 200px; text-align: center;"><span class="nodeLabel"><p>2.2 fix_manim_code<br />Debug &amp; Fix Code</p></span></div></foreignObject></g></g><g class="node default" id="flowchart-Solve-9" transform="translate(2918.81640625, 680.625)"><rect class="basic label-container" style="" x="-130" y="-51" width="260" height="102"/><g class="label" style="" transform="translate(-100, -36)"><rect/><foreignObject width="200" height="72"><div xmlns="http://www.w3.org/1999/xhtml" style="display: table; white-space: break-spaces; line-height: 1.5; max-width: 200px; text-align: center; width: 200px;"><span class="nodeLabel"><p>3.0 solve_system_from_parsed<br />SymPy + Newton's Method</p></span></div></foreignObject></g></g><g class="node default" id="flowchart-Newton-10" transform="translate(2918.81640625, 895.4175453186035)"><rect class="basic label-container" style="" x="-114.78125" y="-39" width="229.5625" height="78"/><g class="label" style="" transform="translate(-84.78125, -24)"><rect/><foreignObject width="169.5625" height="48"><div xmlns="http://www.w3.org/1999/xhtml" style="display: table-cell; white-space: nowrap; line-height: 1.5; max-width: 200px; text-align: center;"><span class="nodeLabel"><p>3.1 newton_method_nd<br />N-D Newton Iterations</p></span></div></foreignObject></g></g><g class="node default" id="flowchart-Pipeline-11" transform="translate(1790.390625, 418.625)"><rect class="basic label-container" style="" x="-124.015625" y="-39" width="248.03125" height="78"/><g class="label" style="" transform="translate(-94.015625, -24)"><rect/><foreignObject width="188.03125" height="48"><div xmlns="http://www.w3.org/1999/xhtml" style="display: table-cell; white-space: nowrap; line-height: 1.5; max-width: 200px; text-align: center;"><span class="nodeLabel"><p>4.0 run_pipeline<br />Orchestrate Full Workflow</p></span></div></foreignObject></g></g><g class="node default" id="flowchart-Render-12" transform="translate(406.68359375, 680.625)"><rect class="basic label-container" style="" x="-122.328125" y="-39" width="244.65625" height="78"/><g class="label" style="" transform="translate(-92.328125, -24)"><rect/><foreignObject width="184.65625" height="48"><div xmlns="http://www.w3.org/1999/xhtml" style="display: table-cell; white-space: nowrap; line-height: 1.5; max-width: 200px; text-align: center;"><span class="nodeLabel"><p>5.0 render_manim_video<br />Subprocess Manim Render</p></span></div></foreignObject></g></g><g class="node default" id="flowchart-FindMP4-13" transform="translate(510.49609375, 1074.210090637207)"><rect class="basic label-container" style="" x="-103.75" y="-39" width="207.5" height="78"/><g class="label" style="" transform="translate(-73.75, -24)"><rect/><foreignObject width="147.5" height="48"><div xmlns="http://www.w3.org/1999/xhtml" style="display: table-cell; white-space: nowrap; line-height: 1.5; max-width: 200px; text-align: center;"><span class="nodeLabel"><p>5.1 _find_mp4<br />Locate Output Video</p></span></div></foreignObject></g></g></g></g></g></svg>