<svg id="my-svg" width="100%" xmlns="http://www.w3.org/2000/svg" xmlns:xlink="http://www.w3.org/1999/xlink" class="flowchart" style="max-width: 2417.62px; background-color: white;" viewBox="0 0 2417.625 1047.53125" role="graphics-document document" aria-roledescription="flowchart-v2"><style>#my-svg{font-family:"trebuchet ms",verdana,arial,sans-serif;font-size:16px;fill:#333;}@keyframes edge-animation-frame{from{stroke-dashoffset:0;}}@keyframes dash{to{stroke-dashoffset:0;}}#my-svg .edge-animation-slow{stroke-dasharray:9,5!important;stroke-dashoffset:900;animation:dash 50s linear infinite;stroke-linecap:round;}#my-svg .edge-animation-fast{stroke-dasharray:9,5!important;stroke-dashoffset:900;animation:dash 20s linear infinite;stroke-linecap:round;}#my-svg .error-icon{fill:#552222;}#my-svg .error-text{fill:#552222;stroke:#552222;}#my-svg .edge-thickness-normal{stroke-width:1px;}#my-svg .edge-thickness-thick{stroke-width:3.5px;}#my-svg .edge-pattern-solid{stroke-dasharray:0;}#my-svg .edge-thickness-invisible{stroke-width:0;fill:none;}#my-svg .edge-pattern-dashed{stroke-dasharray:3;}#my-svg .edge-pattern-dotted{stroke-dasharray:2;}#my-svg .marker{fill:#333333;stroke:#333333;}#my-svg .marker.cross{stroke:#333333;}#my-svg svg{font-family:"trebuchet ms",verdana,arial,sans-serif;font-size:16px;}#my-svg p{margin:0;}#my-svg .label{font-family:"trebuchet ms",verdana,arial,sans-serif;color:#333;}#my-svg .cluster-label text{fill:#333;}#my-svg .cluster-label span{color:#333;}#my-svg .cluster-label span p{background-color:transparent;}#my-svg .label text,#my-svg span{fill:#333;color:#333;}#my-svg .node rect,#my-svg .node circle,#my-svg .node ellipse,#my-svg .node polygon,#my-svg .node path{fill:#ECECFF;stroke:#9370DB;stroke-width:1px;}#my-svg .rough-node .label text,#my-svg .node .label text,#my-svg .image-shape .label,#my-svg .icon-shape .label{text-anchor:middle;}#my-svg .node .katex path{fill:#000;stroke:#000;stroke-width:1px;}#my-svg .rough-node .label,#my-svg .node .label,#my-svg .image-shape .label,#my-svg .icon-shape .label{text-align:center;}#my-svg .node.clickable{cursor:pointer;}#my-svg .root .anchor path{fill:#333333!important;stroke-width:0;stroke:#333333;}#my-svg .arrowheadPath{fill:#333333;}#my-svg .edgePath .path{stroke:#333333;stroke-width:2.0px;}#my-svg .flowchart-link{stroke:#333333;fill:none;}#my-svg .edgeLabel{background-color:rgba(232,232,232, 0.8);text-align:center;}#my-svg .edgeLabel p{background-color:rgba(232,232,232, 0.8);}#my-svg .edgeLabel rect{opacity:0.5;background-color:rgba(232,232,232, 0.8);fill:rgba(232,232,232, 0.8);}#my-svg .labelBkg{background-color:rgba(232, 232, 232, 0.5);}#my-svg .cluster rect{fill:#ffffde;stroke:#aaaa33;stroke-width:1px;}#my-svg .cluster text{fill:#333;}#my-svg .cluster span{color:#333;}#my-svg div.mermaidTooltip{position:absolute;text-align:center;max-width:200px;padding:2px;font-family:"trebuchet ms",verdana,arial,sans-serif;font-size:12px;background:hsl(80, 100%, 96.2745098039%);border:1px solid #aaaa33;border-radius:2px;pointer-events:none;z-index:100;}#my-svg .flowchartTitleText{text-anchor:middle;font-size:18px;fill:#333;}#my-svg rect.text{fill:none;stroke-width:0;}#my-svg .icon-shape,#my-svg .image-shape{background-color:rgba(232,232,232, 0.8);text-align:center;}#my-svg .icon-shape p,#my-svg .image-shape p{background-color:rgba(232,232,232, 0.8);padding:2px;}#my-svg .icon-shape .label rect,#my-svg .image-shape .label rect{opacity:0.5;background-color:rgba(232,232,232, 0.8);fill:rgba(232,232,232, 0.8);}#my-svg .label-icon{display:inline-block;height:1em;overflow:visible;vertical-align:-0.125em;}#my-svg .node .label-icon path{fill:currentColor;stroke:revert;stroke-width:revert;}#my-svg :root{--mermaid-font-family:"trebuchet ms",verdana,arial,sans-serif;}</style><g><marker id="my-svg_flowchart-v2-pointEnd" class="marker flowchart-v2" viewBox="0 0 10 10" refX="5" refY="5" markerUnits="userSpaceOnUse" markerWidth="8" markerHeight="8" orient="auto"><path d="M 0 0 L 10 5 L 0 10 z" class="arrowMarkerPath" style="stroke-width: 1; stroke-dasharray: 1, 0;"/></marker><marker id="my-svg_flowchart-v2-pointStart" class="marker flowchart-v2" viewBox="0 0 10 10" refX="4.5" refY="5" markerUnits="userSpaceOnUse" markerWidth="8" markerHeight="8" orient="auto"><path d="M 0 5 L 10 10 L 10 0 z" class="arrowMarkerPath" style="stroke-width: 1; stroke-dasharray: 1, 0;"/></marker><marker id="my-svg_flowchart-v2-circleEnd" class="marker flowchart-v2" viewBox="0 0 10 10" refX="11" refY="5" markerUnits="userSpaceOnUse" markerWidth="11" markerHeight="11" orient="auto"><circle cx="5" cy="5" r="5" class="arrowMarkerPath" style="stroke-width: 1; stroke-dasharray: 1, 0;"/></marker><marker id="my-svg_flowchart-v2-circleStart" class="marker flowchart-v2" viewBox="0 0 10 10" refX="-1" refY="5" markerUnits="userSpaceOnUse" markerWidth="11" markerHeight="11" orient="auto"><circle cx="5" cy="5" r="5" class="arrowMarkerPath" style="stroke-width: 1; stroke-dasharray: 1, 0;"/></marker><marker id="my-svg_flowchart-v2-crossEnd" class="marker cross flowchart-v2" viewBox="0 0 11 11" refX="12" refY="5.2" markerUnits="userSpaceOnUse" markerWidth="11" markerHeight="11" orient="auto"><path d="M 1,1 l 9,9 M 10,1 l -9,9" class="arrowMarkerPath" style="stroke-width: 2; stroke-dasharray: 1, 0;"/></marker><marker id="my-svg_flowchart-v2-crossStart" class="marker cross flowchart-v2" viewBox="0 0 11 11" refX="-1" refY="5.2" markerUnits="userSpaceOnUse" markerWidth="11" markerHeight="11" orient="auto"><path d="M 1,1 l 9,9 M 10,1 l -9,9" class="arrowMarkerPath" style="stroke-width: 2; stroke-dasharray: 1, 0;"/></marker><g class="root"><g class="clusters"><g class="cluster" id="System" data-look="classic"><rect style="" x="246.359375" y="8" width="2163.265625" height="947.3515625"/><g class="cluster-label" transform="translate(1225.96875, 8)"><foreignObject width="204.046875" height="24"><div xmlns="http://www.w3.org/1999/xhtml" style="display: table-cell; white-space: nowrap; line-height: 1.5;"><span class="nodeLabel"><p>🧮 Nonlinear Systems Solver</p></span></div></foreignObject></g></g><g class="cluster" id="Actors" data-look="classic"><rect style="" x="8" y="9.59375" width="188.359375" height="1029.9375"/><g class="cluster-label" transform="translate(79.6875, 9.59375)"><foreignObject width="44.984375" height="24"><div xmlns="http://www.w3.org/1999/xhtml" style="display: table-cell; white-space: nowrap; line-height: 1.5;"><span class="nodeLabel"><p>Actors</p></span></div></foreignObject></g></g></g><g class="edgePaths"><path d="M114.132,297.241L127.837,258.534C141.541,219.827,168.95,142.414,186.822,103.707C204.693,65,213.026,65,221.359,65C229.693,65,238.026,65,264.874,65C291.721,65,337.083,65,387.346,65C437.609,65,492.773,65,528.774,66.946C564.774,68.891,581.61,72.782,590.028,74.728L598.446,76.673" id="L_User_UC1_0" class="edge-thickness-normal edge-pattern-solid edge-thickness-normal edge-pattern-solid flowchart-link" style=";" data-edge="true" data-et="edge" data-id="L_User_UC1_0" data-points="W3sieCI6MTE0LjEzMjM1Nzg4MDMzNjk3LCJ5IjoyOTcuMjQxMDE4NTcyNDAwNH0seyJ4IjoxOTYuMzU5Mzc1LCJ5Ijo2NX0seyJ4IjoyMjEuMzU5Mzc1LCJ5Ijo2NX0seyJ4IjoyNDYuMzU5Mzc1LCJ5Ijo2NX0seyJ4IjozODIuNDQ1MzEyNSwieSI6NjV9LHsieCI6NTQ3LjkzNzUsInkiOjY1fSx7IngiOjYwMi4zNDM3NSwieSI6NzcuNTc0MDc3Njg4ODU0MTl9XQ==" marker-end="url(#my-svg_flowchart-v2-pointEnd)"/><path d="M117.951,298.847L131.019,272.206C144.087,245.565,170.223,192.282,187.458,165.641C204.693,139,213.026,139,221.359,139C229.693,139,238.026,139,246.822,139C255.617,139,264.875,139,269.504,139L274.133,139" id="L_User_UC2_0" class="edge-thickness-normal edge-pattern-solid edge-thickness-normal edge-pattern-solid flowchart-link" style=";" data-edge="true" data-et="edge" data-id="L_User_UC2_0" data-points="W3sieCI6MTE3Ljk1MTE5Mzg4MDkyNDg5LCJ5IjoyOTguODQ3MzIxMzc1NTYxMn0seyJ4IjoxOTYuMzU5Mzc1LCJ5IjoxMzl9LHsieCI6MjIxLjM1OTM3NSwieSI6MTM5fSx7IngiOjI0Ni4zNTkzNzUsInkiOjEzOX0seyJ4IjoyNzguMTMyODEyNSwieSI6MTM5fV0=" marker-end="url(#my-svg_flowchart-v2-pointEnd)"/><path d="M131.8,310.871L142.56,303.559C153.32,296.248,174.84,281.624,189.766,274.312C204.693,267,213.026,267,221.359,267C229.693,267,238.026,267,247.862,267C257.698,267,269.036,267,274.706,267L280.375,267" id="L_User_UC8_0" class="edge-thickness-normal edge-pattern-solid edge-thickness-normal edge-pattern-solid flowchart-link" style=";" data-edge="true" data-et="edge" data-id="L_User_UC8_0" data-points="W3sieCI6MTMxLjgwMDE2MTEyNjE1OTIsInkiOjMxMC44NzEzNDYzMzM4NDUxN30seyJ4IjoxOTYuMzU5Mzc1LCJ5IjoyNjd9LHsieCI6MjIxLjM1OTM3NSwieSI6MjY3fSx7IngiOjI0Ni4zNTkzNzUsInkiOjI2N30seyJ4IjoyODQuMzc1LCJ5IjoyNjd9XQ==" marker-end="url(#my-svg_flowchart-v2-pointEnd)"/><path d="M131.8,351.129L142.56,358.441C153.32,365.752,174.84,380.376,189.766,387.688C204.693,395,213.026,395,221.359,395C229.693,395,238.026,395,247.637,395C257.247,395,268.135,395,273.579,395L279.023,395" id="L_User_UC9_0" class="edge-thickness-normal edge-pattern-solid edge-thickness-normal edge-pattern-solid flowchart-link" style=";" data-edge="true" data-et="edge" data-id="L_User_UC9_0" data-points="W3sieCI6MTMxLjgwMDE2MTEyNjE1OTIsInkiOjM1MS4xMjg2NTM2NjYxNTQ4M30seyJ4IjoxOTYuMzU5Mzc1LCJ5IjozOTV9LHsieCI6MjIxLjM1OTM3NSwieSI6Mzk1fSx7IngiOjI0Ni4zNTkzNzUsInkiOjM5NX0seyJ4IjoyODMuMDIzNDM3NSwieSI6Mzk1fV0=" marker-end="url(#my-svg_flowchart-v2-pointEnd)"/><path d="M117.951,363.153L131.019,389.794C144.087,416.435,170.223,469.718,187.458,496.359C204.693,523,213.026,523,221.359,523C229.693,523,238.026,523,245.693,523C253.359,523,260.359,523,263.859,523L267.359,523" id="L_User_UC10_0" class="edge-thickness-normal edge-pattern-solid edge-thickness-normal edge-pattern-solid flowchart-link" style=";" data-edge="true" data-et="edge" data-id="L_User_UC10_0" data-points="W3sieCI6MTE3Ljk1MTE5Mzg4MDkyNDg5LCJ5IjozNjMuMTUyNjc4NjI0NDM4OH0seyJ4IjoxOTYuMzU5Mzc1LCJ5Ijo1MjN9LHsieCI6MjIxLjM1OTM3NSwieSI6NTIzfSx7IngiOjI0Ni4zNTkzNzUsInkiOjUyM30seyJ4IjoyNzEuMzU5Mzc1LCJ5Ijo1MjN9XQ==" marker-end="url(#my-svg_flowchart-v2-pointEnd)"/><path d="M112.291,365.355L126.302,412.963C140.314,460.57,168.337,555.785,186.515,603.393C204.693,651,213.026,651,221.359,651C229.693,651,238.026,651,249.497,651C260.969,651,275.578,651,282.883,651L290.188,651" id="L_User_UC11_0" class="edge-thickness-normal edge-pattern-solid edge-thickness-normal edge-pattern-solid flowchart-link" style=";" data-edge="true" data-et="edge" data-id="L_User_UC11_0" data-points="W3sieCI6MTEyLjI5MDg5OTIyMDE3NDc1LCJ5IjozNjUuMzU1NDczNDE4MzYyMzV9LHsieCI6MTk2LjM1OTM3NSwieSI6NjUxfSx7IngiOjIyMS4zNTkzNzUsInkiOjY1MX0seyJ4IjoyNDYuMzU5Mzc1LCJ5Ijo2NTF9LHsieCI6Mjk0LjE4NzUsInkiOjY1MX1d" marker-end="url(#my-svg_flowchart-v2-pointEnd)"/><path d="M813.719,102L822.786,102C831.854,102,849.99,102,882.001,137.606C914.013,173.213,959.901,244.425,982.845,280.031L1005.789,315.638" id="L_UC1_UC3_0" class="edge-thickness-normal edge-pattern-solid edge-thickness-normal edge-pattern-solid flowchart-link" style=";" data-edge="true" data-et="edge" data-id="L_UC1_UC3_0" data-points="W3sieCI6ODEzLjcxODc1LCJ5IjoxMDJ9LHsieCI6ODY4LjEyNSwieSI6MTAyfSx7IngiOjEwMDcuOTU1MTY5Njc3NzM0NCwieSI6MzE5fV0=" marker-end="url(#my-svg_flowchart-v2-pointEnd)"/><path d="M486.758,139L496.954,139C507.151,139,527.544,139,546.159,137.054C564.774,135.109,581.61,131.218,590.028,129.272L598.446,127.327" id="L_UC2_UC1_0" class="edge-thickness-normal edge-pattern-solid edge-thickness-normal edge-pattern-solid flowchart-link" style=";" data-edge="true" data-et="edge" data-id="L_UC2_UC1_0" data-points="W3sieCI6NDg2Ljc1NzgxMjUsInkiOjEzOX0seyJ4Ijo1NDcuOTM3NSwieSI6MTM5fSx7IngiOjYwMi4zNDM3NSwieSI6MTI2LjQyNTkyMjMxMTE0NTgxfV0=" marker-end="url(#my-svg_flowchart-v2-pointEnd)"/><path d="M1143.641,358L1152.708,358C1161.776,358,1179.911,358,1197.38,358C1214.849,358,1231.651,358,1240.052,358L1248.453,358" id="L_UC3_UC4_0" class="edge-thickness-normal edge-pattern-solid edge-thickness-normal edge-pattern-solid flowchart-link" style=";" data-edge="true" data-et="edge" data-id="L_UC3_UC4_0" data-points="W3sieCI6MTE0My42NDA2MjUsInkiOjM1OH0seyJ4IjoxMTk4LjA0Njg3NSwieSI6MzU4fSx7IngiOjEyNTIuNDUzMTI1LCJ5IjozNTh9XQ==" marker-end="url(#my-svg_flowchart-v2-pointEnd)"/><path d="M1444.281,358L1453.349,358C1462.417,358,1480.552,358,1498.037,359.912C1515.523,361.825,1532.358,365.65,1540.776,367.562L1549.193,369.474" id="L_UC4_UC5_0" class="edge-thickness-normal edge-pattern-solid edge-thickness-normal edge-pattern-solid flowchart-link" style=";" data-edge="true" data-et="edge" data-id="L_UC4_UC5_0" data-points="W3sieCI6MTQ0NC4yODEyNSwieSI6MzU4fSx7IngiOjE0OTguNjg3NSwieSI6MzU4fSx7IngiOjE1NTMuMDkzNzUsInkiOjM3MC4zNjA1NDg3ODYzMzc5fV0=" marker-end="url(#my-svg_flowchart-v2-pointEnd)"/><path d="M1770,395L1779.068,395C1788.135,395,1806.271,395,1823.74,395C1841.208,395,1858.01,395,1866.411,395L1874.813,395" id="L_UC5_UC6_0" class="edge-thickness-normal edge-pattern-solid edge-thickness-normal edge-pattern-solid flowchart-link" style=";" data-edge="true" data-et="edge" data-id="L_UC5_UC6_0" data-points="W3sieCI6MTc3MCwieSI6Mzk1fSx7IngiOjE4MjQuNDA2MjUsInkiOjM5NX0seyJ4IjoxODc4LjgxMjUsInkiOjM5NX1d" marker-end="url(#my-svg_flowchart-v2-pointEnd)"/><path d="M2010.984,356L2035.389,306.833C2059.794,257.667,2108.604,159.333,2154.928,219.846C2201.253,280.359,2245.091,499.718,2267.011,609.398L2288.93,719.078" id="L_UC6_UC7_0" class="edge-thickness-normal edge-pattern-solid edge-thickness-normal edge-pattern-solid flowchart-link" style=";" data-edge="true" data-et="edge" data-id="L_UC6_UC7_0" data-points="W3sieCI6MjAxMC45ODM2MDMxMDYyODczLCJ5IjozNTZ9LHsieCI6MjE1Ny40MTQwNjI1LCJ5Ijo2MX0seyJ4IjoyMjg5LjcxMzcyMzY5ODI4OCwieSI6NzIzfV0=" marker-end="url(#my-svg_flowchart-v2-pointEnd)"/><path d="M2210.391,799.109L2201.561,802.87C2192.732,806.631,2175.073,814.154,2141.379,753.923C2107.685,693.693,2057.956,565.711,2033.092,501.72L2008.228,437.728" id="L_UC7_UC6_0" class="edge-thickness-normal edge-pattern-solid edge-thickness-normal edge-pattern-solid flowchart-link" style=";" data-edge="true" data-et="edge" data-id="L_UC7_UC6_0" data-points="W3sieCI6MjIxMC4zOTA2MjUsInkiOjc5OS4xMDkzMzczMTQyMjg3fSx7IngiOjIxNTcuNDE0MDYyNSwieSI6ODIxLjY3NTc4MTI1fSx7IngiOjIwMDYuNzc4ODMyNzczMzQ3NiwieSI6NDM0fV0=" marker-end="url(#my-svg_flowchart-v2-pointEnd)"/><path d="M152.6,742.192L159.893,739.326C167.187,736.461,181.773,730.731,193.233,727.865C204.693,725,213.026,725,221.359,725C229.693,725,238.026,725,264.874,725C291.721,725,337.083,725,387.346,725C437.609,725,492.773,725,547.038,725C601.302,725,654.667,725,708.031,725C761.396,725,814.76,725,865.741,670.941C916.722,616.883,965.319,508.766,989.618,454.707L1013.916,400.648" id="L_Gemini_UC3_0" class="edge-thickness-normal edge-pattern-solid edge-thickness-normal edge-pattern-solid flowchart-link" style=";" data-edge="true" data-et="edge" data-id="L_Gemini_UC3_0" data-points="W3sieCI6MTUyLjYwMDA4ODU0NTA2OTksInkiOjc0Mi4xOTE1MzcxNzU0OTE0fSx7IngiOjE5Ni4zNTkzNzUsInkiOjcyNX0seyJ4IjoyMjEuMzU5Mzc1LCJ5Ijo3MjV9LHsieCI6MjQ2LjM1OTM3NSwieSI6NzI1fSx7IngiOjM4Mi40NDUzMTI1LCJ5Ijo3MjV9LHsieCI6NTQ3LjkzNzUsInkiOjcyNX0seyJ4Ijo3MDguMDMxMjUsInkiOjcyNX0seyJ4Ijo4NjguMTI1LCJ5Ijo3MjV9LHsieCI6MTAxNS41NTYwMjg2MTAzNTQyLCJ5IjozOTd9XQ==" marker-end="url(#my-svg_flowchart-v2-pointEnd)"/><path d="M156.049,767.72L162.767,768.433C169.486,769.147,182.922,770.573,193.808,771.287C204.693,772,213.026,772,221.359,772C229.693,772,238.026,772,264.874,772C291.721,772,337.083,772,387.346,772C437.609,772,492.773,772,547.038,772C601.302,772,654.667,772,708.031,772C761.396,772,814.76,772,868.936,772C923.112,772,978.099,772,1033.086,772C1088.073,772,1143.06,772,1195.607,772C1248.154,772,1298.26,772,1348.367,772C1398.474,772,1448.581,772,1497.705,716.279C1546.829,660.557,1594.971,549.115,1619.042,493.393L1643.113,437.672" id="L_Gemini_UC5_0" class="edge-thickness-normal edge-pattern-solid edge-thickness-normal edge-pattern-solid flowchart-link" style=";" data-edge="true" data-et="edge" data-id="L_Gemini_UC5_0" data-points="W3sieCI6MTU2LjA0ODc0ODQ3NzQ4NTY3LCJ5Ijo3NjcuNzE5ODE3MzQxNDUwMn0seyJ4IjoxOTYuMzU5Mzc1LCJ5Ijo3NzJ9LHsieCI6MjIxLjM1OTM3NSwieSI6NzcyfSx7IngiOjI0Ni4zNTkzNzUsInkiOjc3Mn0seyJ4IjozODIuNDQ1MzEyNSwieSI6NzcyfSx7IngiOjU0Ny45Mzc1LCJ5Ijo3NzJ9LHsieCI6NzA4LjAzMTI1LCJ5Ijo3NzJ9LHsieCI6ODY4LjEyNSwieSI6NzcyfSx7IngiOjEwMzMuMDg1OTM3NSwieSI6NzcyfSx7IngiOjExOTguMDQ2ODc1LCJ5Ijo3NzJ9LHsieCI6MTM0OC4zNjcxODc1LCJ5Ijo3NzJ9LHsieCI6MTQ5OC42ODc1LCJ5Ijo3NzJ9LHsieCI6MTY0NC42OTkzNTM0NDgyNzU4LCJ5Ijo0MzR9XQ==" marker-end="url(#my-svg_flowchart-v2-pointEnd)"/><path d="M136.74,803.715L146.677,815.709C156.613,827.702,176.486,851.689,190.59,863.682C204.693,875.676,213.026,875.676,221.359,875.676C229.693,875.676,238.026,875.676,264.874,875.676C291.721,875.676,337.083,875.676,387.346,875.676C437.609,875.676,492.773,875.676,547.038,875.676C601.302,875.676,654.667,875.676,708.031,875.676C761.396,875.676,814.76,875.676,868.936,875.676C923.112,875.676,978.099,875.676,1033.086,875.676C1088.073,875.676,1143.06,875.676,1195.607,875.676C1248.154,875.676,1298.26,875.676,1348.367,875.676C1398.474,875.676,1448.581,875.676,1500.777,875.676C1552.974,875.676,1607.26,875.676,1661.547,875.676C1715.833,875.676,1770.12,875.676,1825.133,875.676C1880.146,875.676,1935.885,875.676,1991.387,875.676C2046.888,875.676,2102.151,875.676,2144.603,863.65C2187.055,851.624,2216.697,827.572,2231.518,815.546L2246.338,803.52" id="L_Gemini_UC7_0" class="edge-thickness-normal edge-pattern-solid edge-thickness-normal edge-pattern-solid flowchart-link" style=";" data-edge="true" data-et="edge" data-id="L_Gemini_UC7_0" data-points="W3sieCI6MTM2Ljc0MDM5MzAzMTY5MiwieSI6ODAzLjcxNTEwMTI3MjQwODZ9LHsieCI6MTk2LjM1OTM3NSwieSI6ODc1LjY3NTc4MTI1fSx7IngiOjIyMS4zNTkzNzUsInkiOjg3NS42NzU3ODEyNX0seyJ4IjoyNDYuMzU5Mzc1LCJ5Ijo4NzUuNjc1NzgxMjV9LHsieCI6MzgyLjQ0NTMxMjUsInkiOjg3NS42NzU3ODEyNX0seyJ4Ijo1NDcuOTM3NSwieSI6ODc1LjY3NTc4MTI1fSx7IngiOjcwOC4wMzEyNSwieSI6ODc1LjY3NTc4MTI1fSx7IngiOjg2OC4xMjUsInkiOjg3NS42NzU3ODEyNX0seyJ4IjoxMDMzLjA4NTkzNzUsInkiOjg3NS42NzU3ODEyNX0seyJ4IjoxMTk4LjA0Njg3NSwieSI6ODc1LjY3NTc4MTI1fSx7IngiOjEzNDguMzY3MTg3NSwieSI6ODc1LjY3NTc4MTI1fSx7IngiOjE0OTguNjg3NSwieSI6ODc1LjY3NTc4MTI1fSx7IngiOjE2NjEuNTQ2ODc1LCJ5Ijo4NzUuNjc1NzgxMjV9LHsieCI6MTgyNC40MDYyNSwieSI6ODc1LjY3NTc4MTI1fSx7IngiOjE5OTEuNjI1LCJ5Ijo4NzUuNjc1NzgxMjV9LHsieCI6MjE1Ny40MTQwNjI1LCJ5Ijo4NzUuNjc1NzgxMjV9LHsieCI6MjI0OS40NDQzMDk1Mjc1OTM4LCJ5Ijo4MDF9XQ==" marker-end="url(#my-svg_flowchart-v2-pointEnd)"/><path d="M171.359,935.352L175.526,935.352C179.693,935.352,188.026,935.352,196.359,935.352C204.693,935.352,213.026,935.352,221.359,935.352C229.693,935.352,238.026,935.352,264.874,935.352C291.721,935.352,337.083,935.352,387.346,935.352C437.609,935.352,492.773,935.352,547.038,935.352C601.302,935.352,654.667,935.352,708.031,935.352C761.396,935.352,814.76,935.352,868.936,935.352C923.112,935.352,978.099,935.352,1033.086,935.352C1088.073,935.352,1143.06,935.352,1195.607,935.352C1248.154,935.352,1298.26,935.352,1348.367,935.352C1398.474,935.352,1448.581,935.352,1500.777,935.352C1552.974,935.352,1607.26,935.352,1661.547,935.352C1715.833,935.352,1770.12,935.352,1822.924,852.43C1875.729,769.508,1927.051,603.665,1952.712,520.743L1978.373,437.821" id="L_Manim_UC6_0" class="edge-thickness-normal edge-pattern-solid edge-thickness-normal edge-pattern-solid flowchart-link" style=";" data-edge="true" data-et="edge" data-id="L_Manim_UC6_0" data-points="W3sieCI6MTcxLjM1OTM3NSwieSI6OTM1LjM1MTU2MjV9LHsieCI6MTk2LjM1OTM3NSwieSI6OTM1LjM1MTU2MjV9LHsieCI6MjIxLjM1OTM3NSwieSI6OTM1LjM1MTU2MjV9LHsieCI6MjQ2LjM1OTM3NSwieSI6OTM1LjM1MTU2MjV9LHsieCI6MzgyLjQ0NTMxMjUsInkiOjkzNS4zNTE1NjI1fSx7IngiOjU0Ny45Mzc1LCJ5Ijo5MzUuMzUxNTYyNX0seyJ4Ijo3MDguMDMxMjUsInkiOjkzNS4zNTE1NjI1fSx7IngiOjg2OC4xMjUsInkiOjkzNS4zNTE1NjI1fSx7IngiOjEwMzMuMDg1OTM3NSwieSI6OTM1LjM1MTU2MjV9LHsieCI6MTE5OC4wNDY4NzUsInkiOjkzNS4zNTE1NjI1fSx7IngiOjEzNDguMzY3MTg3NSwieSI6OTM1LjM1MTU2MjV9LHsieCI6MTQ5OC42ODc1LCJ5Ijo5MzUuMzUxNTYyNX0seyJ4IjoxNjYxLjU0Njg3NSwieSI6OTM1LjM1MTU2MjV9LHsieCI6MTgyNC40MDYyNSwieSI6OTM1LjM1MTU2MjV9LHsieCI6MTk3OS41NTU5NDc3MzM2ODAzLCJ5Ijo0MzR9XQ==" marker-end="url(#my-svg_flowchart-v2-pointEnd)"/></g><g class="edgeLabels"><g class="edgeLabel"><g class="label" data-id="L_User_UC1_0" transform="translate(0, 0)"><foreignObject width="0" height="0"><div xmlns="http://www.w3.org/1999/xhtml" class="labelBkg" style="display: table-cell; white-space: nowrap; line-height: 1.5; max-width: 200px; text-align: center;"><span class="edgeLabel"></span></div></foreignObject></g></g><g class="edgeLabel"><g class="label" data-id="L_User_UC2_0" transform="translate(0, 0)"><foreignObject width="0" height="0"><div xmlns="http://www.w3.org/1999/xhtml" class="labelBkg" style="display: table-cell; white-space: nowrap; line-height: 1.5; max-width: 200px; text-align: center;"><span class="edgeLabel"></span></div></foreignObject></g></g><g class="edgeLabel"><g class="label" data-id="L_User_UC8_0" transform="translate(0, 0)"><foreignObject width="0" height="0"><div xmlns="http://www.w3.org/1999/xhtml" class="labelBkg" style="display: table-cell; white-space: nowrap; line-height: 1.5; max-width: 200px; text-align: center;"><span class="edgeLabel"></span></div></foreignObject></g></g><g class="edgeLabel"><g class="label" data-id="L_User_UC9_0" transform="translate(0, 0)"><foreignObject width="0" height="0"><div xmlns="http://www.w3.org/1999/xhtml" class="labelBkg" style="display: table-cell; white-space: nowrap; line-height: 1.5; max-width: 200px; text-align: center;"><span class="edgeLabel"></span></div></foreignObject></g></g><g class="edgeLabel"><g class="label" data-id="L_User_UC10_0" transform="translate(0, 0)"><foreignObject width="0" height="0"><div xmlns="http://www.w3.org/1999/xhtml" class="labelBkg" style="display: table-cell; white-space: nowrap; line-height: 1.5; max-width: 200px; text-align: center;"><span class="edgeLabel"></span></div></foreignObject></g></g><g class="edgeLabel"><g class="label" data-id="L_User_UC11_0" transform="translate(0, 0)"><foreignObject width="0" height="0"><div xmlns="http://www.w3.org/1999/xhtml" class="labelBkg" style="display: table-cell; white-space: nowrap; line-height: 1.5; max-width: 200px; text-align: center;"><span class="edgeLabel"></span></div></foreignObject></g></g><g class="edgeLabel" transform="translate(868.125, 102)"><g class="label" data-id="L_UC1_UC3_0" transform="translate(-29.40625, -12)"><foreignObject width="58.8125" height="24"><div xmlns="http://www.w3.org/1999/xhtml" class="labelBkg" style="display: table-cell; white-space: nowrap; line-height: 1.5; max-width: 200px; text-align: center;"><span class="edgeLabel"><p>includes</p></span></div></foreignObject></g></g><g class="edgeLabel" transform="translate(547.9375, 139)"><g class="label" data-id="L_UC2_UC1_0" transform="translate(-29.40625, -12)"><foreignObject width="58.8125" height="24"><div xmlns="http://www.w3.org/1999/xhtml" class="labelBkg" style="display: table-cell; white-space: nowrap; line-height: 1.5; max-width: 200px; text-align: center;"><span class="edgeLabel"><p>includes</p></span></div></foreignObject></g></g><g class="edgeLabel" transform="translate(1198.046875, 358)"><g class="label" data-id="L_UC3_UC4_0" transform="translate(-29.40625, -12)"><foreignObject width="58.8125" height="24"><div xmlns="http://www.w3.org/1999/xhtml" class="labelBkg" style="display: table-cell; white-space: nowrap; line-height: 1.5; max-width: 200px; text-align: center;"><span class="edgeLabel"><p>includes</p></span></div></foreignObject></g></g><g class="edgeLabel" transform="translate(1498.6875, 358)"><g class="label" data-id="L_UC4_UC5_0" transform="translate(-29.40625, -12)"><foreignObject width="58.8125" height="24"><div xmlns="http://www.w3.org/1999/xhtml" class="labelBkg" style="display: table-cell; white-space: nowrap; line-height: 1.5; max-width: 200px; text-align: center;"><span class="edgeLabel"><p>includes</p></span></div></foreignObject></g></g><g class="edgeLabel" transform="translate(1824.40625, 395)"><g class="label" data-id="L_UC5_UC6_0" transform="translate(-29.40625, -12)"><foreignObject width="58.8125" height="24"><div xmlns="http://www.w3.org/1999/xhtml" class="labelBkg" style="display: table-cell; white-space: nowrap; line-height: 1.5; max-width: 200px; text-align: center;"><span class="edgeLabel"><p>includes</p></span></div></foreignObject></g></g><g class="edgeLabel" transform="translate(2191.29268, 230.52155)"><g class="label" data-id="L_UC6_UC7_0" transform="translate(-27.9765625, -12)"><foreignObject width="55.953125" height="24"><div xmlns="http://www.w3.org/1999/xhtml" class="labelBkg" style="display: table-cell; white-space: nowrap; line-height: 1.5; max-width: 200px; text-align: center;"><span class="edgeLabel"><p>extends</p></span></div></foreignObject></g></g><g class="edgeLabel" transform="translate(2092.52408, 654.67452)"><g class="label" data-id="L_UC7_UC6_0" transform="translate(-23.640625, -12)"><foreignObject width="47.28125" height="24"><div xmlns="http://www.w3.org/1999/xhtml" class="labelBkg" style="display: table-cell; white-space: nowrap; line-height: 1.5; max-width: 200px; text-align: center;"><span class="edgeLabel"><p>retries</p></span></div></foreignObject></g></g><g class="edgeLabel"><g class="label" data-id="L_Gemini_UC3_0" transform="translate(0, 0)"><foreignObject width="0" height="0"><div xmlns="http://www.w3.org/1999/xhtml" class="labelBkg" style="display: table-cell; white-space: nowrap; line-height: 1.5; max-width: 200px; text-align: center;"><span class="edgeLabel"></span></div></foreignObject></g></g><g class="edgeLabel"><g class="label" data-id="L_Gemini_UC5_0" transform="translate(0, 0)"><foreignObject width="0" height="0"><div xmlns="http://www.w3.org/1999/xhtml" class="labelBkg" style="display: table-cell; white-space: nowrap; line-height: 1.5; max-width: 200px; text-align: center;"><span class="edgeLabel"></span></div></foreignObject></g></g><g class="edgeLabel"><g class="label" data-id="L_Gemini_UC7_0" transform="translate(0, 0)"><foreignObject width="0" height="0"><div xmlns="http://www.w3.org/1999/xhtml" class="labelBkg" style="display: table-cell; white-space: nowrap; line-height: 1.5; max-width: 200px; text-align: center;"><span class="edgeLabel"></span></div></foreignObject></g></g><g class="edgeLabel"><g class="label" data-id="L_Manim_UC6_0" transform="translate(0, 0)"><foreignObject width="0" height="0"><div xmlns="http://www.w3.org/1999/xhtml" class="labelBkg" style="display: table-cell; white-space: nowrap; line-height: 1.5; max-width: 200px; text-align: center;"><span class="edgeLabel"></span></div></foreignObject></g></g></g><g class="nodes"><g class="node default" id="flowchart-User-0" transform="translate(102.1796875, 331)"><circle class="basic label-container" style="" r="35.8125" cx="0" cy="0"/><g class="label" style="" transform="translate(-28.3125, -12)"><rect/><foreignObject width="56.625" height="24"><div xmlns="http://www.w3.org/1999/xhtml" style="display: table-cell; white-space: nowrap; line-height: 1.5; max-width: 200px; text-align: center;"><span class="nodeLabel"><p>👤 User</p></span></div></foreignObject></g></g><g class="node default" id="flowchart-Gemini-1" transform="translate(102.1796875, 762)"><circle class="basic label-container" style="" r="54.171875" cx="0" cy="0"/><g class="label" style="" transform="translate(-46.671875, -12)"><rect/><foreignObject width="93.34375" height="24"><div xmlns="http://www.w3.org/1999/xhtml" style="display: table-cell; white-space: nowrap; line-height: 1.5; max-width: 200px; text-align: center;"><span class="nodeLabel"><p>🤖 Gemini AI</p></span></div></foreignObject></g></g><g class="node default" id="flowchart-Manim-2" transform="translate(102.1796875, 935.3515625)"><circle class="basic label-container" style="" r="69.1796875" cx="0" cy="0"/><g class="label" style="" transform="translate(-61.6796875, -12)"><rect/><foreignObject width="123.359375" height="24"><div xmlns="http://www.w3.org/1999/xhtml" style="display: table-cell; white-space: nowrap; line-height: 1.5; max-width: 200px; text-align: center;"><span class="nodeLabel"><p>🎬 Manim Engine</p></span></div></foreignObject></g></g><g class="node default" id="flowchart-UC1-3" transform="translate(708.03125, 102)"><rect class="basic label-container" style="" x="-105.6875" y="-39" width="211.375" height="78"/><g class="label" style="" transform="translate(-75.6875, -24)"><rect/><foreignObject width="151.375" height="48"><div xmlns="http://www.w3.org/1999/xhtml" style="display: table-cell; white-space: nowrap; line-height: 1.5; max-width: 200px; text-align: center;"><span class="nodeLabel"><p>UC1: Enter Nonlinear<br />System Problem</p></span></div></foreignObject></g></g><g class="node default" id="flowchart-UC2-4" transform="translate(382.4453125, 139)"><rect class="basic label-container" style="" x="-104.3125" y="-39" width="208.625" height="78"/><g class="label" style="" transform="translate(-74.3125, -24)"><rect/><foreignObject width="148.625" height="48"><div xmlns="http://www.w3.org/1999/xhtml" style="display: table-cell; white-space: nowrap; line-height: 1.5; max-width: 200px; text-align: center;"><span class="nodeLabel"><p>UC2: Select Example<br />Problem</p></span></div></foreignObject></g></g><g class="node default" id="flowchart-UC3-5" transform="translate(1033.0859375, 358)"><rect class="basic label-container" style="" x="-110.5546875" y="-39" width="221.109375" height="78"/><g class="label" style="" transform="translate(-80.5546875, -24)"><rect/><foreignObject width="161.109375" height="48"><div xmlns="http://www.w3.org/1999/xhtml" style="display: table-cell; white-space: nowrap; line-height: 1.5; max-width: 200px; text-align: center;"><span class="nodeLabel"><p>UC3: Parse Natural<br />Language to Equations</p></span></div></foreignObject></g></g><g class="node default" id="flowchart-UC4-6" transform="translate(1348.3671875, 358)"><rect class="basic label-container" style="" x="-95.9140625" y="-39" width="191.828125" height="78"/><g class="label" style="" transform="translate(-65.9140625, -24)"><rect/><foreignObject width="131.828125" height="48"><div xmlns="http://www.w3.org/1999/xhtml" style="display: table-cell; white-space: nowrap; line-height: 1.5; max-width: 200px; text-align: center;"><span class="nodeLabel"><p>UC4: Solve System<br />Numerically</p></span></div></foreignObject></g></g><g class="node default" id="flowchart-UC5-7" transform="translate(1661.546875, 395)"><rect class="basic label-container" style="" x="-108.453125" y="-39" width="216.90625" height="78"/><g class="label" style="" transform="translate(-78.453125, -24)"><rect/><foreignObject width="156.90625" height="48"><div xmlns="http://www.w3.org/1999/xhtml" style="display: table-cell; white-space: nowrap; line-height: 1.5; max-width: 200px; text-align: center;"><span class="nodeLabel"><p>UC5: Generate Manim<br />Animation Code</p></span></div></foreignObject></g></g><g class="node default" id="flowchart-UC6-8" transform="translate(1991.625, 395)"><rect class="basic label-container" style="" x="-112.8125" y="-39" width="225.625" height="78"/><g class="label" style="" transform="translate(-82.8125, -24)"><rect/><foreignObject width="165.625" height="48"><div xmlns="http://www.w3.org/1999/xhtml" style="display: table-cell; white-space: nowrap; line-height: 1.5; max-width: 200px; text-align: center;"><span class="nodeLabel"><p>UC6: Render Animation<br />Video</p></span></div></foreignObject></g></g><g class="node default" id="flowchart-UC7-9" transform="translate(2297.5078125, 762)"><rect class="basic label-container" style="" x="-87.1171875" y="-39" width="174.234375" height="78"/><g class="label" style="" transform="translate(-57.1171875, -24)"><rect/><foreignObject width="114.234375" height="48"><div xmlns="http://www.w3.org/1999/xhtml" style="display: table-cell; white-space: nowrap; line-height: 1.5; max-width: 200px; text-align: center;"><span class="nodeLabel"><p>UC7: Fix Broken<br />Manim Code</p></span></div></foreignObject></g></g><g class="node default" id="flowchart-UC8-10" transform="translate(382.4453125, 267)"><rect class="basic label-container" style="" x="-98.0703125" y="-39" width="196.140625" height="78"/><g class="label" style="" transform="translate(-68.0703125, -24)"><rect/><foreignObject width="136.140625" height="48"><div xmlns="http://www.w3.org/1999/xhtml" style="display: table-cell; white-space: nowrap; line-height: 1.5; max-width: 200px; text-align: center;"><span class="nodeLabel"><p>UC8: View Solution<br />Animation</p></span></div></foreignObject></g></g><g class="node default" id="flowchart-UC9-11" transform="translate(382.4453125, 395)"><rect class="basic label-container" style="" x="-99.421875" y="-39" width="198.84375" height="78"/><g class="label" style="" transform="translate(-69.421875, -24)"><rect/><foreignObject width="138.84375" height="48"><div xmlns="http://www.w3.org/1999/xhtml" style="display: table-cell; white-space: nowrap; line-height: 1.5; max-width: 200px; text-align: center;"><span class="nodeLabel"><p>UC9: View Solution<br />Details &amp; Iterations</p></span></div></foreignObject></g></g><g class="node default" id="flowchart-UC10-12" transform="translate(382.4453125, 523)"><rect class="basic label-container" style="" x="-111.0859375" y="-39" width="222.171875" height="78"/><g class="label" style="" transform="translate(-81.0859375, -24)"><rect/><foreignObject width="162.171875" height="48"><div xmlns="http://www.w3.org/1999/xhtml" style="display: table-cell; white-space: nowrap; line-height: 1.5; max-width: 200px; text-align: center;"><span class="nodeLabel"><p>UC10: View Generated<br />Code &amp; Logs</p></span></div></foreignObject></g></g><g class="node default" id="flowchart-UC11-13" transform="translate(382.4453125, 651)"><rect class="basic label-container" style="" x="-88.2578125" y="-39" width="176.515625" height="78"/><g class="label" style="" transform="translate(-58.2578125, -24)"><rect/><foreignObject width="116.515625" height="48"><div xmlns="http://www.w3.org/1999/xhtml" style="display: table-cell; white-space: nowrap; line-height: 1.5; max-width: 200px; text-align: center;"><span class="nodeLabel"><p>UC11: Configure<br />API Key</p></span></div></foreignObject></g></g></g></g></g></svg>